G04 #@! TF.GenerationSoftware,KiCad,Pcbnew,(5.1.2-1)-1*
G04 #@! TF.CreationDate,2021-06-24T11:17:02+03:00*
G04 #@! TF.ProjectId,OEP-1,4f45502d-312e-46b6-9963-61645f706362,rev?*
G04 #@! TF.SameCoordinates,Original*
G04 #@! TF.FileFunction,Copper,L2,Bot*
G04 #@! TF.FilePolarity,Positive*
%FSLAX46Y46*%
G04 Gerber Fmt 4.6, Leading zero omitted, Abs format (unit mm)*
G04 Created by KiCad (PCBNEW (5.1.2-1)-1) date 2021-06-24 11:17:02*
%MOMM*%
%LPD*%
G04 APERTURE LIST*
%ADD10C,0.200000*%
%ADD11C,0.100000*%
%ADD12C,5.500000*%
%ADD13O,0.500000X1.000000*%
%ADD14C,1.700000*%
%ADD15R,1.700000X1.700000*%
%ADD16C,0.800000*%
%ADD17C,0.250000*%
%ADD18C,0.450000*%
%ADD19C,0.800000*%
G04 APERTURE END LIST*
D10*
X127464285Y-173702380D02*
X128035714Y-173702380D01*
X127750000Y-173702380D02*
X127750000Y-172702380D01*
X127845238Y-172845238D01*
X127940476Y-172940476D01*
X128035714Y-172988095D01*
X126988095Y-173654761D02*
X126988095Y-173702380D01*
X127035714Y-173797619D01*
X127083333Y-173845238D01*
X126083333Y-172702380D02*
X126559523Y-172702380D01*
X126607142Y-173178571D01*
X126559523Y-173130952D01*
X126464285Y-173083333D01*
X126226190Y-173083333D01*
X126130952Y-173130952D01*
X126083333Y-173178571D01*
X126035714Y-173273809D01*
X126035714Y-173511904D01*
X126083333Y-173607142D01*
X126130952Y-173654761D01*
X126226190Y-173702380D01*
X126464285Y-173702380D01*
X126559523Y-173654761D01*
X126607142Y-173607142D01*
X125654761Y-173416666D02*
X125178571Y-173416666D01*
X125750000Y-173702380D02*
X125416666Y-172702380D01*
X125083333Y-173702380D01*
X123988095Y-173702380D02*
X123988095Y-172702380D01*
X123654761Y-173416666D01*
X123321428Y-172702380D01*
X123321428Y-173702380D01*
X122892857Y-173416666D02*
X122416666Y-173416666D01*
X122988095Y-173702380D02*
X122654761Y-172702380D01*
X122321428Y-173702380D01*
X122083333Y-172702380D02*
X121416666Y-173702380D01*
X121416666Y-172702380D02*
X122083333Y-173702380D01*
D11*
G36*
X109250000Y-158750000D02*
G01*
X110250000Y-158750000D01*
X110250000Y-157750000D01*
X109250000Y-157750000D01*
X109250000Y-158750000D01*
G37*
D12*
X147000000Y-150000000D03*
X147000000Y-174000000D03*
X102750000Y-149750000D03*
X103000000Y-174000000D03*
D13*
X109250000Y-158250000D03*
X110250000Y-158250000D03*
D14*
X144500000Y-168700000D03*
D15*
X144500000Y-166160000D03*
X144500000Y-163620000D03*
X144500000Y-161080000D03*
X144500000Y-158540000D03*
X144500000Y-156000000D03*
D14*
X105500000Y-155750000D03*
D15*
X105500000Y-158290000D03*
X105500000Y-160830000D03*
X105500000Y-163370000D03*
X105500000Y-165910000D03*
X105500000Y-168450000D03*
D16*
X115425000Y-160250000D03*
X120250000Y-158500000D03*
X129250000Y-168250000D03*
X127237347Y-167487347D03*
X115500000Y-161750000D03*
X114500000Y-159000000D03*
X111500000Y-156500000D03*
X136500000Y-158250000D03*
X113500000Y-166500000D03*
X115500000Y-163000000D03*
X134500000Y-161750000D03*
X140750000Y-153000000D03*
X132250000Y-158500000D03*
X128750000Y-166000000D03*
X119250000Y-164750000D03*
X120750000Y-155500000D03*
X134500000Y-154000000D03*
X122500000Y-150750000D03*
X122500000Y-152000000D03*
X122500000Y-149500000D03*
X134500000Y-164250000D03*
X130750000Y-161750000D03*
X134500000Y-156250000D03*
X134500000Y-159750000D03*
X138750000Y-165750000D03*
X126500000Y-153499999D03*
X126499999Y-157499999D03*
X124000001Y-162750001D03*
X123999999Y-166750000D03*
D17*
X117175000Y-158500000D02*
X120250000Y-158500000D01*
X115425000Y-160250000D02*
X117175000Y-158500000D01*
D18*
X128000000Y-168250000D02*
X127237347Y-167487347D01*
X129250000Y-168250000D02*
X128000000Y-168250000D01*
X114500000Y-160750000D02*
X115500000Y-161750000D01*
X114500000Y-160750000D02*
X114500000Y-159000000D01*
D17*
X110250000Y-158250000D02*
X111750000Y-158250000D01*
X110250000Y-158250000D02*
X110250000Y-156750000D01*
X110250000Y-158500000D02*
X110250000Y-159750000D01*
X132000000Y-161750000D02*
X134500000Y-164250000D01*
X130750000Y-161750000D02*
X132000000Y-161750000D01*
X134500000Y-159750000D02*
X134500000Y-157900001D01*
X134500000Y-156250000D02*
X134500000Y-157900001D01*
X138750000Y-164000000D02*
X138750000Y-165750000D01*
X134500000Y-159750000D02*
X138750000Y-164000000D01*
D19*
X103250000Y-156797919D02*
X104297919Y-155750000D01*
X103250000Y-169520002D02*
X103250000Y-156797919D01*
X111381388Y-175250000D02*
X106331378Y-170199990D01*
X103929988Y-170199990D02*
X103250000Y-169520002D01*
X137950000Y-175250000D02*
X111381388Y-175250000D01*
X104297919Y-155750000D02*
X105500000Y-155750000D01*
X144500000Y-168700000D02*
X137950000Y-175250000D01*
X106331378Y-170199990D02*
X103929988Y-170199990D01*
X105500000Y-158290000D02*
X107099990Y-158290000D01*
X107099990Y-158290000D02*
X107790000Y-158290000D01*
X107099990Y-158290000D02*
X107120000Y-158290000D01*
X108290000Y-158290000D02*
X109099990Y-158290000D01*
X107790000Y-158290000D02*
X108290000Y-158290000D01*
X107210000Y-158290000D02*
X107790000Y-157710000D01*
X107099990Y-158290000D02*
X107210000Y-158290000D01*
X107790000Y-158040000D02*
X107790000Y-157460000D01*
X108290000Y-158210000D02*
X107790000Y-157710000D01*
X108290000Y-158290000D02*
X108290000Y-158210000D01*
X142650000Y-166160000D02*
X142250000Y-165760000D01*
X144500000Y-166160000D02*
X142650000Y-166160000D01*
X107790000Y-155210000D02*
X107790000Y-157710000D01*
X112949990Y-148050010D02*
X141300010Y-148050010D01*
X107790000Y-153210000D02*
X112949990Y-148050010D01*
X141300010Y-148050010D02*
X142250000Y-149000000D01*
X107790000Y-155460000D02*
X107790000Y-153210000D01*
X142250000Y-151250000D02*
X142250000Y-149000000D01*
X142250000Y-165760000D02*
X142250000Y-151250000D01*
D17*
X126500000Y-153499999D02*
X126499999Y-157499999D01*
X123999998Y-166750000D02*
X124000000Y-162750000D01*
D10*
G36*
X141250001Y-149414214D02*
G01*
X141250000Y-151299119D01*
X141250001Y-151299129D01*
X141250000Y-165710880D01*
X141245162Y-165760000D01*
X141264470Y-165956033D01*
X141321651Y-166144534D01*
X141414508Y-166318258D01*
X141539472Y-166470528D01*
X141577637Y-166501849D01*
X141650000Y-166574212D01*
X141650000Y-170000000D01*
X141651921Y-170019509D01*
X141657612Y-170038268D01*
X141666853Y-170055557D01*
X141679289Y-170070711D01*
X141694443Y-170083147D01*
X141699785Y-170086002D01*
X137535788Y-174250000D01*
X128926191Y-174250000D01*
X128926191Y-171880000D01*
X120573810Y-171880000D01*
X120573810Y-174250000D01*
X111795602Y-174250000D01*
X107395600Y-169850000D01*
X108250000Y-169850000D01*
X108269509Y-169848079D01*
X108288268Y-169842388D01*
X108305557Y-169833147D01*
X108320711Y-169820711D01*
X108333147Y-169805557D01*
X108342388Y-169788268D01*
X108348079Y-169769509D01*
X108350000Y-169750000D01*
X108350000Y-166651509D01*
X122999999Y-166651509D01*
X122999999Y-166848491D01*
X123038428Y-167041689D01*
X123113810Y-167223678D01*
X123223248Y-167387463D01*
X123362536Y-167526751D01*
X123526321Y-167636189D01*
X123708310Y-167711571D01*
X123901508Y-167750000D01*
X124098490Y-167750000D01*
X124291688Y-167711571D01*
X124473677Y-167636189D01*
X124637462Y-167526751D01*
X124775357Y-167388856D01*
X126237347Y-167388856D01*
X126237347Y-167585838D01*
X126275776Y-167779036D01*
X126351158Y-167961025D01*
X126460596Y-168124810D01*
X126599884Y-168264098D01*
X126763669Y-168373536D01*
X126945658Y-168448918D01*
X127053679Y-168470404D01*
X127387983Y-168804709D01*
X127413815Y-168836185D01*
X127539437Y-168939281D01*
X127682759Y-169015888D01*
X127791097Y-169048752D01*
X127838271Y-169063062D01*
X127853870Y-169064598D01*
X127959479Y-169075000D01*
X127959486Y-169075000D01*
X127999999Y-169078990D01*
X128040512Y-169075000D01*
X128684746Y-169075000D01*
X128776322Y-169136189D01*
X128958311Y-169211571D01*
X129151509Y-169250000D01*
X129348491Y-169250000D01*
X129541689Y-169211571D01*
X129723678Y-169136189D01*
X129887463Y-169026751D01*
X130026751Y-168887463D01*
X130136189Y-168723678D01*
X130211571Y-168541689D01*
X130250000Y-168348491D01*
X130250000Y-168151509D01*
X130211571Y-167958311D01*
X130136189Y-167776322D01*
X130026751Y-167612537D01*
X129887463Y-167473249D01*
X129723678Y-167363811D01*
X129541689Y-167288429D01*
X129348491Y-167250000D01*
X129151509Y-167250000D01*
X128958311Y-167288429D01*
X128776322Y-167363811D01*
X128684746Y-167425000D01*
X128341726Y-167425000D01*
X128220404Y-167303679D01*
X128198918Y-167195658D01*
X128123536Y-167013669D01*
X128014098Y-166849884D01*
X127874810Y-166710596D01*
X127711025Y-166601158D01*
X127529036Y-166525776D01*
X127335838Y-166487347D01*
X127138856Y-166487347D01*
X126945658Y-166525776D01*
X126763669Y-166601158D01*
X126599884Y-166710596D01*
X126460596Y-166849884D01*
X126351158Y-167013669D01*
X126275776Y-167195658D01*
X126237347Y-167388856D01*
X124775357Y-167388856D01*
X124776750Y-167387463D01*
X124886188Y-167223678D01*
X124961570Y-167041689D01*
X124999999Y-166848491D01*
X124999999Y-166651509D01*
X124961570Y-166458311D01*
X124886188Y-166276322D01*
X124776750Y-166112537D01*
X124724998Y-166060785D01*
X124724999Y-163439217D01*
X124776752Y-163387464D01*
X124886190Y-163223679D01*
X124961572Y-163041690D01*
X125000001Y-162848492D01*
X125000001Y-162651510D01*
X124961572Y-162458312D01*
X124886190Y-162276323D01*
X124776752Y-162112538D01*
X124637464Y-161973250D01*
X124473679Y-161863812D01*
X124291690Y-161788430D01*
X124098492Y-161750001D01*
X123901510Y-161750001D01*
X123708312Y-161788430D01*
X123526323Y-161863812D01*
X123362538Y-161973250D01*
X123223250Y-162112538D01*
X123113812Y-162276323D01*
X123038430Y-162458312D01*
X123000001Y-162651510D01*
X123000001Y-162848492D01*
X123038430Y-163041690D01*
X123113812Y-163223679D01*
X123223250Y-163387464D01*
X123275000Y-163439214D01*
X123274999Y-166060786D01*
X123223248Y-166112537D01*
X123113810Y-166276322D01*
X123038428Y-166458311D01*
X122999999Y-166651509D01*
X108350000Y-166651509D01*
X108350000Y-159290000D01*
X108926123Y-159290000D01*
X109083372Y-159337700D01*
X109208949Y-159350069D01*
X109313084Y-159472272D01*
X109520767Y-159636373D01*
X109756474Y-159756804D01*
X110011147Y-159828937D01*
X110014158Y-159829239D01*
X110225000Y-159574709D01*
X110225000Y-159350000D01*
X110250000Y-159350000D01*
X110275000Y-159347549D01*
X110275000Y-159574709D01*
X110485842Y-159829239D01*
X110488853Y-159828937D01*
X110743526Y-159756804D01*
X110979233Y-159636373D01*
X111186916Y-159472272D01*
X111358594Y-159270807D01*
X111487670Y-159039720D01*
X111532406Y-158901509D01*
X113500000Y-158901509D01*
X113500000Y-159098491D01*
X113538429Y-159291689D01*
X113613811Y-159473678D01*
X113675001Y-159565255D01*
X113675000Y-160709486D01*
X113671010Y-160750000D01*
X113675000Y-160790513D01*
X113675000Y-160790520D01*
X113681423Y-160855731D01*
X113686938Y-160911728D01*
X113701248Y-160958902D01*
X113734112Y-161067240D01*
X113810719Y-161210562D01*
X113913815Y-161336185D01*
X113945295Y-161362020D01*
X114516943Y-161933669D01*
X114538429Y-162041689D01*
X114613811Y-162223678D01*
X114723249Y-162387463D01*
X114862537Y-162526751D01*
X115026322Y-162636189D01*
X115208311Y-162711571D01*
X115401509Y-162750000D01*
X115598491Y-162750000D01*
X115791689Y-162711571D01*
X115973678Y-162636189D01*
X116137463Y-162526751D01*
X116276751Y-162387463D01*
X116386189Y-162223678D01*
X116461571Y-162041689D01*
X116500000Y-161848491D01*
X116500000Y-161651509D01*
X129750000Y-161651509D01*
X129750000Y-161848491D01*
X129788429Y-162041689D01*
X129863811Y-162223678D01*
X129973249Y-162387463D01*
X130112537Y-162526751D01*
X130276322Y-162636189D01*
X130458311Y-162711571D01*
X130651509Y-162750000D01*
X130848491Y-162750000D01*
X131041689Y-162711571D01*
X131223678Y-162636189D01*
X131387463Y-162526751D01*
X131439214Y-162475000D01*
X131699696Y-162475000D01*
X133500000Y-164275305D01*
X133500000Y-164348491D01*
X133538429Y-164541689D01*
X133613811Y-164723678D01*
X133723249Y-164887463D01*
X133862537Y-165026751D01*
X134026322Y-165136189D01*
X134208311Y-165211571D01*
X134401509Y-165250000D01*
X134598491Y-165250000D01*
X134791689Y-165211571D01*
X134973678Y-165136189D01*
X135137463Y-165026751D01*
X135276751Y-164887463D01*
X135386189Y-164723678D01*
X135461571Y-164541689D01*
X135500000Y-164348491D01*
X135500000Y-164151509D01*
X135461571Y-163958311D01*
X135386189Y-163776322D01*
X135276751Y-163612537D01*
X135137463Y-163473249D01*
X134973678Y-163363811D01*
X134791689Y-163288429D01*
X134598491Y-163250000D01*
X134525305Y-163250000D01*
X132537832Y-161262528D01*
X132515132Y-161234868D01*
X132404737Y-161144269D01*
X132278788Y-161076947D01*
X132142125Y-161035491D01*
X132035607Y-161025000D01*
X132035597Y-161025000D01*
X132000000Y-161021494D01*
X131964403Y-161025000D01*
X131439214Y-161025000D01*
X131387463Y-160973249D01*
X131223678Y-160863811D01*
X131041689Y-160788429D01*
X130848491Y-160750000D01*
X130651509Y-160750000D01*
X130458311Y-160788429D01*
X130276322Y-160863811D01*
X130112537Y-160973249D01*
X129973249Y-161112537D01*
X129863811Y-161276322D01*
X129788429Y-161458311D01*
X129750000Y-161651509D01*
X116500000Y-161651509D01*
X116461571Y-161458311D01*
X116386189Y-161276322D01*
X116276751Y-161112537D01*
X116137463Y-160973249D01*
X116124576Y-160964638D01*
X116201751Y-160887463D01*
X116311189Y-160723678D01*
X116386571Y-160541689D01*
X116425000Y-160348491D01*
X116425000Y-160275304D01*
X117475305Y-159225000D01*
X119560786Y-159225000D01*
X119612537Y-159276751D01*
X119776322Y-159386189D01*
X119958311Y-159461571D01*
X120151509Y-159500000D01*
X120348491Y-159500000D01*
X120541689Y-159461571D01*
X120723678Y-159386189D01*
X120887463Y-159276751D01*
X121026751Y-159137463D01*
X121136189Y-158973678D01*
X121211571Y-158791689D01*
X121250000Y-158598491D01*
X121250000Y-158401509D01*
X121211571Y-158208311D01*
X121136189Y-158026322D01*
X121026751Y-157862537D01*
X120887463Y-157723249D01*
X120723678Y-157613811D01*
X120541689Y-157538429D01*
X120348491Y-157500000D01*
X120151509Y-157500000D01*
X119958311Y-157538429D01*
X119776322Y-157613811D01*
X119612537Y-157723249D01*
X119560786Y-157775000D01*
X117210597Y-157775000D01*
X117175000Y-157771494D01*
X117139403Y-157775000D01*
X117139393Y-157775000D01*
X117032875Y-157785491D01*
X116901098Y-157825465D01*
X116896212Y-157826947D01*
X116770263Y-157894269D01*
X116687525Y-157962170D01*
X116687523Y-157962172D01*
X116659868Y-157984868D01*
X116637172Y-158012523D01*
X115487286Y-159162410D01*
X115500000Y-159098491D01*
X115500000Y-158901509D01*
X115461571Y-158708311D01*
X115386189Y-158526322D01*
X115276751Y-158362537D01*
X115137463Y-158223249D01*
X114973678Y-158113811D01*
X114791689Y-158038429D01*
X114598491Y-158000000D01*
X114401509Y-158000000D01*
X114208311Y-158038429D01*
X114026322Y-158113811D01*
X113862537Y-158223249D01*
X113723249Y-158362537D01*
X113613811Y-158526322D01*
X113538429Y-158708311D01*
X113500000Y-158901509D01*
X111532406Y-158901509D01*
X111569183Y-158787892D01*
X111600000Y-158525000D01*
X111600000Y-158275000D01*
X110850000Y-158275000D01*
X110850000Y-158225000D01*
X111600000Y-158225000D01*
X111600000Y-157975000D01*
X111569183Y-157712108D01*
X111487670Y-157460280D01*
X111454843Y-157401508D01*
X125499999Y-157401508D01*
X125499999Y-157598490D01*
X125538428Y-157791688D01*
X125613810Y-157973677D01*
X125723248Y-158137462D01*
X125862536Y-158276750D01*
X126026321Y-158386188D01*
X126208310Y-158461570D01*
X126401508Y-158499999D01*
X126598490Y-158499999D01*
X126791688Y-158461570D01*
X126973677Y-158386188D01*
X127137462Y-158276750D01*
X127276750Y-158137462D01*
X127386188Y-157973677D01*
X127461570Y-157791688D01*
X127499999Y-157598490D01*
X127499999Y-157401508D01*
X127461570Y-157208310D01*
X127386188Y-157026321D01*
X127276750Y-156862536D01*
X127224998Y-156810784D01*
X127224998Y-156151509D01*
X133500000Y-156151509D01*
X133500000Y-156348491D01*
X133538429Y-156541689D01*
X133613811Y-156723678D01*
X133723249Y-156887463D01*
X133775000Y-156939214D01*
X133775001Y-157864394D01*
X133775000Y-159060786D01*
X133723249Y-159112537D01*
X133613811Y-159276322D01*
X133538429Y-159458311D01*
X133500000Y-159651509D01*
X133500000Y-159848491D01*
X133538429Y-160041689D01*
X133613811Y-160223678D01*
X133723249Y-160387463D01*
X133862537Y-160526751D01*
X134026322Y-160636189D01*
X134208311Y-160711571D01*
X134401509Y-160750000D01*
X134474696Y-160750000D01*
X138025000Y-164300305D01*
X138025001Y-165060785D01*
X137973249Y-165112537D01*
X137863811Y-165276322D01*
X137788429Y-165458311D01*
X137750000Y-165651509D01*
X137750000Y-165848491D01*
X137788429Y-166041689D01*
X137863811Y-166223678D01*
X137973249Y-166387463D01*
X138112537Y-166526751D01*
X138276322Y-166636189D01*
X138458311Y-166711571D01*
X138651509Y-166750000D01*
X138848491Y-166750000D01*
X139041689Y-166711571D01*
X139223678Y-166636189D01*
X139387463Y-166526751D01*
X139526751Y-166387463D01*
X139636189Y-166223678D01*
X139711571Y-166041689D01*
X139750000Y-165848491D01*
X139750000Y-165651509D01*
X139711571Y-165458311D01*
X139636189Y-165276322D01*
X139526751Y-165112537D01*
X139475000Y-165060786D01*
X139475000Y-164035600D01*
X139478506Y-164000000D01*
X139475000Y-163964400D01*
X139475000Y-163964393D01*
X139464509Y-163857875D01*
X139423053Y-163721212D01*
X139355731Y-163595263D01*
X139287830Y-163512525D01*
X139287823Y-163512518D01*
X139265131Y-163484868D01*
X139237482Y-163462177D01*
X135500000Y-159724696D01*
X135500000Y-159651509D01*
X135461571Y-159458311D01*
X135386189Y-159276322D01*
X135276751Y-159112537D01*
X135225000Y-159060786D01*
X135225000Y-156939214D01*
X135276751Y-156887463D01*
X135386189Y-156723678D01*
X135461571Y-156541689D01*
X135500000Y-156348491D01*
X135500000Y-156151509D01*
X135461571Y-155958311D01*
X135386189Y-155776322D01*
X135276751Y-155612537D01*
X135137463Y-155473249D01*
X134973678Y-155363811D01*
X134791689Y-155288429D01*
X134598491Y-155250000D01*
X134401509Y-155250000D01*
X134208311Y-155288429D01*
X134026322Y-155363811D01*
X133862537Y-155473249D01*
X133723249Y-155612537D01*
X133613811Y-155776322D01*
X133538429Y-155958311D01*
X133500000Y-156151509D01*
X127224998Y-156151509D01*
X127225000Y-154189213D01*
X127276751Y-154137462D01*
X127386189Y-153973677D01*
X127461571Y-153791688D01*
X127500000Y-153598490D01*
X127500000Y-153401508D01*
X127461571Y-153208310D01*
X127386189Y-153026321D01*
X127276751Y-152862536D01*
X127137463Y-152723248D01*
X126973678Y-152613810D01*
X126791689Y-152538428D01*
X126598491Y-152499999D01*
X126401509Y-152499999D01*
X126208311Y-152538428D01*
X126026322Y-152613810D01*
X125862537Y-152723248D01*
X125723249Y-152862536D01*
X125613811Y-153026321D01*
X125538429Y-153208310D01*
X125500000Y-153401508D01*
X125500000Y-153598490D01*
X125538429Y-153791688D01*
X125613811Y-153973677D01*
X125723249Y-154137462D01*
X125775001Y-154189214D01*
X125774999Y-156810785D01*
X125723248Y-156862536D01*
X125613810Y-157026321D01*
X125538428Y-157208310D01*
X125499999Y-157401508D01*
X111454843Y-157401508D01*
X111358594Y-157229193D01*
X111186916Y-157027728D01*
X110979233Y-156863627D01*
X110743526Y-156743196D01*
X110488853Y-156671063D01*
X110485842Y-156670761D01*
X110275000Y-156925291D01*
X110275000Y-157151923D01*
X110258377Y-157150058D01*
X110254332Y-157150030D01*
X110254189Y-157150015D01*
X110254046Y-157150028D01*
X110250000Y-157150000D01*
X110225000Y-157150000D01*
X110225000Y-156925291D01*
X110014158Y-156670761D01*
X110011147Y-156671063D01*
X109756474Y-156743196D01*
X109520767Y-156863627D01*
X109313084Y-157027728D01*
X109208949Y-157149931D01*
X109083371Y-157162300D01*
X108923145Y-157210903D01*
X108790000Y-157282071D01*
X108790000Y-153624212D01*
X113364203Y-149050010D01*
X140885797Y-149050010D01*
X141250001Y-149414214D01*
X141250001Y-149414214D01*
G37*
X141250001Y-149414214D02*
X141250000Y-151299119D01*
X141250001Y-151299129D01*
X141250000Y-165710880D01*
X141245162Y-165760000D01*
X141264470Y-165956033D01*
X141321651Y-166144534D01*
X141414508Y-166318258D01*
X141539472Y-166470528D01*
X141577637Y-166501849D01*
X141650000Y-166574212D01*
X141650000Y-170000000D01*
X141651921Y-170019509D01*
X141657612Y-170038268D01*
X141666853Y-170055557D01*
X141679289Y-170070711D01*
X141694443Y-170083147D01*
X141699785Y-170086002D01*
X137535788Y-174250000D01*
X128926191Y-174250000D01*
X128926191Y-171880000D01*
X120573810Y-171880000D01*
X120573810Y-174250000D01*
X111795602Y-174250000D01*
X107395600Y-169850000D01*
X108250000Y-169850000D01*
X108269509Y-169848079D01*
X108288268Y-169842388D01*
X108305557Y-169833147D01*
X108320711Y-169820711D01*
X108333147Y-169805557D01*
X108342388Y-169788268D01*
X108348079Y-169769509D01*
X108350000Y-169750000D01*
X108350000Y-166651509D01*
X122999999Y-166651509D01*
X122999999Y-166848491D01*
X123038428Y-167041689D01*
X123113810Y-167223678D01*
X123223248Y-167387463D01*
X123362536Y-167526751D01*
X123526321Y-167636189D01*
X123708310Y-167711571D01*
X123901508Y-167750000D01*
X124098490Y-167750000D01*
X124291688Y-167711571D01*
X124473677Y-167636189D01*
X124637462Y-167526751D01*
X124775357Y-167388856D01*
X126237347Y-167388856D01*
X126237347Y-167585838D01*
X126275776Y-167779036D01*
X126351158Y-167961025D01*
X126460596Y-168124810D01*
X126599884Y-168264098D01*
X126763669Y-168373536D01*
X126945658Y-168448918D01*
X127053679Y-168470404D01*
X127387983Y-168804709D01*
X127413815Y-168836185D01*
X127539437Y-168939281D01*
X127682759Y-169015888D01*
X127791097Y-169048752D01*
X127838271Y-169063062D01*
X127853870Y-169064598D01*
X127959479Y-169075000D01*
X127959486Y-169075000D01*
X127999999Y-169078990D01*
X128040512Y-169075000D01*
X128684746Y-169075000D01*
X128776322Y-169136189D01*
X128958311Y-169211571D01*
X129151509Y-169250000D01*
X129348491Y-169250000D01*
X129541689Y-169211571D01*
X129723678Y-169136189D01*
X129887463Y-169026751D01*
X130026751Y-168887463D01*
X130136189Y-168723678D01*
X130211571Y-168541689D01*
X130250000Y-168348491D01*
X130250000Y-168151509D01*
X130211571Y-167958311D01*
X130136189Y-167776322D01*
X130026751Y-167612537D01*
X129887463Y-167473249D01*
X129723678Y-167363811D01*
X129541689Y-167288429D01*
X129348491Y-167250000D01*
X129151509Y-167250000D01*
X128958311Y-167288429D01*
X128776322Y-167363811D01*
X128684746Y-167425000D01*
X128341726Y-167425000D01*
X128220404Y-167303679D01*
X128198918Y-167195658D01*
X128123536Y-167013669D01*
X128014098Y-166849884D01*
X127874810Y-166710596D01*
X127711025Y-166601158D01*
X127529036Y-166525776D01*
X127335838Y-166487347D01*
X127138856Y-166487347D01*
X126945658Y-166525776D01*
X126763669Y-166601158D01*
X126599884Y-166710596D01*
X126460596Y-166849884D01*
X126351158Y-167013669D01*
X126275776Y-167195658D01*
X126237347Y-167388856D01*
X124775357Y-167388856D01*
X124776750Y-167387463D01*
X124886188Y-167223678D01*
X124961570Y-167041689D01*
X124999999Y-166848491D01*
X124999999Y-166651509D01*
X124961570Y-166458311D01*
X124886188Y-166276322D01*
X124776750Y-166112537D01*
X124724998Y-166060785D01*
X124724999Y-163439217D01*
X124776752Y-163387464D01*
X124886190Y-163223679D01*
X124961572Y-163041690D01*
X125000001Y-162848492D01*
X125000001Y-162651510D01*
X124961572Y-162458312D01*
X124886190Y-162276323D01*
X124776752Y-162112538D01*
X124637464Y-161973250D01*
X124473679Y-161863812D01*
X124291690Y-161788430D01*
X124098492Y-161750001D01*
X123901510Y-161750001D01*
X123708312Y-161788430D01*
X123526323Y-161863812D01*
X123362538Y-161973250D01*
X123223250Y-162112538D01*
X123113812Y-162276323D01*
X123038430Y-162458312D01*
X123000001Y-162651510D01*
X123000001Y-162848492D01*
X123038430Y-163041690D01*
X123113812Y-163223679D01*
X123223250Y-163387464D01*
X123275000Y-163439214D01*
X123274999Y-166060786D01*
X123223248Y-166112537D01*
X123113810Y-166276322D01*
X123038428Y-166458311D01*
X122999999Y-166651509D01*
X108350000Y-166651509D01*
X108350000Y-159290000D01*
X108926123Y-159290000D01*
X109083372Y-159337700D01*
X109208949Y-159350069D01*
X109313084Y-159472272D01*
X109520767Y-159636373D01*
X109756474Y-159756804D01*
X110011147Y-159828937D01*
X110014158Y-159829239D01*
X110225000Y-159574709D01*
X110225000Y-159350000D01*
X110250000Y-159350000D01*
X110275000Y-159347549D01*
X110275000Y-159574709D01*
X110485842Y-159829239D01*
X110488853Y-159828937D01*
X110743526Y-159756804D01*
X110979233Y-159636373D01*
X111186916Y-159472272D01*
X111358594Y-159270807D01*
X111487670Y-159039720D01*
X111532406Y-158901509D01*
X113500000Y-158901509D01*
X113500000Y-159098491D01*
X113538429Y-159291689D01*
X113613811Y-159473678D01*
X113675001Y-159565255D01*
X113675000Y-160709486D01*
X113671010Y-160750000D01*
X113675000Y-160790513D01*
X113675000Y-160790520D01*
X113681423Y-160855731D01*
X113686938Y-160911728D01*
X113701248Y-160958902D01*
X113734112Y-161067240D01*
X113810719Y-161210562D01*
X113913815Y-161336185D01*
X113945295Y-161362020D01*
X114516943Y-161933669D01*
X114538429Y-162041689D01*
X114613811Y-162223678D01*
X114723249Y-162387463D01*
X114862537Y-162526751D01*
X115026322Y-162636189D01*
X115208311Y-162711571D01*
X115401509Y-162750000D01*
X115598491Y-162750000D01*
X115791689Y-162711571D01*
X115973678Y-162636189D01*
X116137463Y-162526751D01*
X116276751Y-162387463D01*
X116386189Y-162223678D01*
X116461571Y-162041689D01*
X116500000Y-161848491D01*
X116500000Y-161651509D01*
X129750000Y-161651509D01*
X129750000Y-161848491D01*
X129788429Y-162041689D01*
X129863811Y-162223678D01*
X129973249Y-162387463D01*
X130112537Y-162526751D01*
X130276322Y-162636189D01*
X130458311Y-162711571D01*
X130651509Y-162750000D01*
X130848491Y-162750000D01*
X131041689Y-162711571D01*
X131223678Y-162636189D01*
X131387463Y-162526751D01*
X131439214Y-162475000D01*
X131699696Y-162475000D01*
X133500000Y-164275305D01*
X133500000Y-164348491D01*
X133538429Y-164541689D01*
X133613811Y-164723678D01*
X133723249Y-164887463D01*
X133862537Y-165026751D01*
X134026322Y-165136189D01*
X134208311Y-165211571D01*
X134401509Y-165250000D01*
X134598491Y-165250000D01*
X134791689Y-165211571D01*
X134973678Y-165136189D01*
X135137463Y-165026751D01*
X135276751Y-164887463D01*
X135386189Y-164723678D01*
X135461571Y-164541689D01*
X135500000Y-164348491D01*
X135500000Y-164151509D01*
X135461571Y-163958311D01*
X135386189Y-163776322D01*
X135276751Y-163612537D01*
X135137463Y-163473249D01*
X134973678Y-163363811D01*
X134791689Y-163288429D01*
X134598491Y-163250000D01*
X134525305Y-163250000D01*
X132537832Y-161262528D01*
X132515132Y-161234868D01*
X132404737Y-161144269D01*
X132278788Y-161076947D01*
X132142125Y-161035491D01*
X132035607Y-161025000D01*
X132035597Y-161025000D01*
X132000000Y-161021494D01*
X131964403Y-161025000D01*
X131439214Y-161025000D01*
X131387463Y-160973249D01*
X131223678Y-160863811D01*
X131041689Y-160788429D01*
X130848491Y-160750000D01*
X130651509Y-160750000D01*
X130458311Y-160788429D01*
X130276322Y-160863811D01*
X130112537Y-160973249D01*
X129973249Y-161112537D01*
X129863811Y-161276322D01*
X129788429Y-161458311D01*
X129750000Y-161651509D01*
X116500000Y-161651509D01*
X116461571Y-161458311D01*
X116386189Y-161276322D01*
X116276751Y-161112537D01*
X116137463Y-160973249D01*
X116124576Y-160964638D01*
X116201751Y-160887463D01*
X116311189Y-160723678D01*
X116386571Y-160541689D01*
X116425000Y-160348491D01*
X116425000Y-160275304D01*
X117475305Y-159225000D01*
X119560786Y-159225000D01*
X119612537Y-159276751D01*
X119776322Y-159386189D01*
X119958311Y-159461571D01*
X120151509Y-159500000D01*
X120348491Y-159500000D01*
X120541689Y-159461571D01*
X120723678Y-159386189D01*
X120887463Y-159276751D01*
X121026751Y-159137463D01*
X121136189Y-158973678D01*
X121211571Y-158791689D01*
X121250000Y-158598491D01*
X121250000Y-158401509D01*
X121211571Y-158208311D01*
X121136189Y-158026322D01*
X121026751Y-157862537D01*
X120887463Y-157723249D01*
X120723678Y-157613811D01*
X120541689Y-157538429D01*
X120348491Y-157500000D01*
X120151509Y-157500000D01*
X119958311Y-157538429D01*
X119776322Y-157613811D01*
X119612537Y-157723249D01*
X119560786Y-157775000D01*
X117210597Y-157775000D01*
X117175000Y-157771494D01*
X117139403Y-157775000D01*
X117139393Y-157775000D01*
X117032875Y-157785491D01*
X116901098Y-157825465D01*
X116896212Y-157826947D01*
X116770263Y-157894269D01*
X116687525Y-157962170D01*
X116687523Y-157962172D01*
X116659868Y-157984868D01*
X116637172Y-158012523D01*
X115487286Y-159162410D01*
X115500000Y-159098491D01*
X115500000Y-158901509D01*
X115461571Y-158708311D01*
X115386189Y-158526322D01*
X115276751Y-158362537D01*
X115137463Y-158223249D01*
X114973678Y-158113811D01*
X114791689Y-158038429D01*
X114598491Y-158000000D01*
X114401509Y-158000000D01*
X114208311Y-158038429D01*
X114026322Y-158113811D01*
X113862537Y-158223249D01*
X113723249Y-158362537D01*
X113613811Y-158526322D01*
X113538429Y-158708311D01*
X113500000Y-158901509D01*
X111532406Y-158901509D01*
X111569183Y-158787892D01*
X111600000Y-158525000D01*
X111600000Y-158275000D01*
X110850000Y-158275000D01*
X110850000Y-158225000D01*
X111600000Y-158225000D01*
X111600000Y-157975000D01*
X111569183Y-157712108D01*
X111487670Y-157460280D01*
X111454843Y-157401508D01*
X125499999Y-157401508D01*
X125499999Y-157598490D01*
X125538428Y-157791688D01*
X125613810Y-157973677D01*
X125723248Y-158137462D01*
X125862536Y-158276750D01*
X126026321Y-158386188D01*
X126208310Y-158461570D01*
X126401508Y-158499999D01*
X126598490Y-158499999D01*
X126791688Y-158461570D01*
X126973677Y-158386188D01*
X127137462Y-158276750D01*
X127276750Y-158137462D01*
X127386188Y-157973677D01*
X127461570Y-157791688D01*
X127499999Y-157598490D01*
X127499999Y-157401508D01*
X127461570Y-157208310D01*
X127386188Y-157026321D01*
X127276750Y-156862536D01*
X127224998Y-156810784D01*
X127224998Y-156151509D01*
X133500000Y-156151509D01*
X133500000Y-156348491D01*
X133538429Y-156541689D01*
X133613811Y-156723678D01*
X133723249Y-156887463D01*
X133775000Y-156939214D01*
X133775001Y-157864394D01*
X133775000Y-159060786D01*
X133723249Y-159112537D01*
X133613811Y-159276322D01*
X133538429Y-159458311D01*
X133500000Y-159651509D01*
X133500000Y-159848491D01*
X133538429Y-160041689D01*
X133613811Y-160223678D01*
X133723249Y-160387463D01*
X133862537Y-160526751D01*
X134026322Y-160636189D01*
X134208311Y-160711571D01*
X134401509Y-160750000D01*
X134474696Y-160750000D01*
X138025000Y-164300305D01*
X138025001Y-165060785D01*
X137973249Y-165112537D01*
X137863811Y-165276322D01*
X137788429Y-165458311D01*
X137750000Y-165651509D01*
X137750000Y-165848491D01*
X137788429Y-166041689D01*
X137863811Y-166223678D01*
X137973249Y-166387463D01*
X138112537Y-166526751D01*
X138276322Y-166636189D01*
X138458311Y-166711571D01*
X138651509Y-166750000D01*
X138848491Y-166750000D01*
X139041689Y-166711571D01*
X139223678Y-166636189D01*
X139387463Y-166526751D01*
X139526751Y-166387463D01*
X139636189Y-166223678D01*
X139711571Y-166041689D01*
X139750000Y-165848491D01*
X139750000Y-165651509D01*
X139711571Y-165458311D01*
X139636189Y-165276322D01*
X139526751Y-165112537D01*
X139475000Y-165060786D01*
X139475000Y-164035600D01*
X139478506Y-164000000D01*
X139475000Y-163964400D01*
X139475000Y-163964393D01*
X139464509Y-163857875D01*
X139423053Y-163721212D01*
X139355731Y-163595263D01*
X139287830Y-163512525D01*
X139287823Y-163512518D01*
X139265131Y-163484868D01*
X139237482Y-163462177D01*
X135500000Y-159724696D01*
X135500000Y-159651509D01*
X135461571Y-159458311D01*
X135386189Y-159276322D01*
X135276751Y-159112537D01*
X135225000Y-159060786D01*
X135225000Y-156939214D01*
X135276751Y-156887463D01*
X135386189Y-156723678D01*
X135461571Y-156541689D01*
X135500000Y-156348491D01*
X135500000Y-156151509D01*
X135461571Y-155958311D01*
X135386189Y-155776322D01*
X135276751Y-155612537D01*
X135137463Y-155473249D01*
X134973678Y-155363811D01*
X134791689Y-155288429D01*
X134598491Y-155250000D01*
X134401509Y-155250000D01*
X134208311Y-155288429D01*
X134026322Y-155363811D01*
X133862537Y-155473249D01*
X133723249Y-155612537D01*
X133613811Y-155776322D01*
X133538429Y-155958311D01*
X133500000Y-156151509D01*
X127224998Y-156151509D01*
X127225000Y-154189213D01*
X127276751Y-154137462D01*
X127386189Y-153973677D01*
X127461571Y-153791688D01*
X127500000Y-153598490D01*
X127500000Y-153401508D01*
X127461571Y-153208310D01*
X127386189Y-153026321D01*
X127276751Y-152862536D01*
X127137463Y-152723248D01*
X126973678Y-152613810D01*
X126791689Y-152538428D01*
X126598491Y-152499999D01*
X126401509Y-152499999D01*
X126208311Y-152538428D01*
X126026322Y-152613810D01*
X125862537Y-152723248D01*
X125723249Y-152862536D01*
X125613811Y-153026321D01*
X125538429Y-153208310D01*
X125500000Y-153401508D01*
X125500000Y-153598490D01*
X125538429Y-153791688D01*
X125613811Y-153973677D01*
X125723249Y-154137462D01*
X125775001Y-154189214D01*
X125774999Y-156810785D01*
X125723248Y-156862536D01*
X125613810Y-157026321D01*
X125538428Y-157208310D01*
X125499999Y-157401508D01*
X111454843Y-157401508D01*
X111358594Y-157229193D01*
X111186916Y-157027728D01*
X110979233Y-156863627D01*
X110743526Y-156743196D01*
X110488853Y-156671063D01*
X110485842Y-156670761D01*
X110275000Y-156925291D01*
X110275000Y-157151923D01*
X110258377Y-157150058D01*
X110254332Y-157150030D01*
X110254189Y-157150015D01*
X110254046Y-157150028D01*
X110250000Y-157150000D01*
X110225000Y-157150000D01*
X110225000Y-156925291D01*
X110014158Y-156670761D01*
X110011147Y-156671063D01*
X109756474Y-156743196D01*
X109520767Y-156863627D01*
X109313084Y-157027728D01*
X109208949Y-157149931D01*
X109083371Y-157162300D01*
X108923145Y-157210903D01*
X108790000Y-157282071D01*
X108790000Y-153624212D01*
X113364203Y-149050010D01*
X140885797Y-149050010D01*
X141250001Y-149414214D01*
M02*
