M48
; DRILL file {KiCad (5.1.4)-1} date 06.06.2021 23:21:24
; FORMAT={3:3/ absolute / metric / keep zeros}
; #@! TF.CreationDate,2021-06-06T23:21:24+03:00
; #@! TF.GenerationSoftware,Kicad,Pcbnew,(5.1.4)-1
; #@! TF.FileFunction,Plated,1,2,PTH
FMAT,2
METRIC
T1C0.400
T2C1.000
T3C3.400
%
G90
G05
T1
X111500Y-154000
X113500Y-164000
X115425Y-157750
X115500Y-160500
X119250Y-162750
X120500Y-154500
X123000Y-163750
X123000Y-165250
X124500Y-148750
X124500Y-150750
X127250Y-156000
X127850Y-153750
X129500Y-157250
X129500Y-159250
X129500Y-161750
X131500Y-155750
X135750Y-151000
T2
X139500Y-153500
X139500Y-156040
X139500Y-158580
X139500Y-161120
X139500Y-163660
X139500Y-166200
X105500Y-153500
X105500Y-156040
X105500Y-158580
X105500Y-161120
X105500Y-163660
X105500Y-166200
T3
X142000Y-172000
X102750Y-147750
X103000Y-172000
X142000Y-148000
T0
M30
