G04 #@! TF.GenerationSoftware,KiCad,Pcbnew,(5.1.4)-1*
G04 #@! TF.CreationDate,2021-06-06T23:25:39+03:00*
G04 #@! TF.ProjectId,OEP-1,4f45502d-312e-46b6-9963-61645f706362,rev?*
G04 #@! TF.SameCoordinates,Original*
G04 #@! TF.FileFunction,Copper,L1,Top*
G04 #@! TF.FilePolarity,Positive*
%FSLAX46Y46*%
G04 Gerber Fmt 4.6, Leading zero omitted, Abs format (unit mm)*
G04 Created by KiCad (PCBNEW (5.1.4)-1) date 2021-06-06 23:25:39*
%MOMM*%
%LPD*%
G04 APERTURE LIST*
%ADD10C,0.200000*%
%ADD11R,1.200000X1.500000*%
%ADD12R,1.500000X1.200000*%
%ADD13C,5.500000*%
%ADD14R,1.500000X3.500000*%
%ADD15C,1.700000*%
%ADD16R,1.700000X1.700000*%
%ADD17R,0.609600X1.473200*%
%ADD18R,1.000000X0.800000*%
%ADD19R,7.000000X6.000000*%
%ADD20R,2.500000X1.500000*%
%ADD21R,1.473200X0.609600*%
%ADD22C,0.800000*%
%ADD23C,0.250000*%
%ADD24C,0.450000*%
%ADD25C,1.000000*%
G04 APERTURE END LIST*
D10*
X107011904Y-169452380D02*
X107202380Y-169452380D01*
X107297619Y-169500000D01*
X107392857Y-169595238D01*
X107440476Y-169785714D01*
X107440476Y-170119047D01*
X107392857Y-170309523D01*
X107297619Y-170404761D01*
X107202380Y-170452380D01*
X107011904Y-170452380D01*
X106916666Y-170404761D01*
X106821428Y-170309523D01*
X106773809Y-170119047D01*
X106773809Y-169785714D01*
X106821428Y-169595238D01*
X106916666Y-169500000D01*
X107011904Y-169452380D01*
X107869047Y-169928571D02*
X108202380Y-169928571D01*
X108345238Y-170452380D02*
X107869047Y-170452380D01*
X107869047Y-169452380D01*
X108345238Y-169452380D01*
X108773809Y-170452380D02*
X108773809Y-169452380D01*
X109154761Y-169452380D01*
X109250000Y-169500000D01*
X109297619Y-169547619D01*
X109345238Y-169642857D01*
X109345238Y-169785714D01*
X109297619Y-169880952D01*
X109250000Y-169928571D01*
X109154761Y-169976190D01*
X108773809Y-169976190D01*
X109773809Y-170071428D02*
X110535714Y-170071428D01*
X111535714Y-170452380D02*
X110964285Y-170452380D01*
X111250000Y-170452380D02*
X111250000Y-169452380D01*
X111154761Y-169595238D01*
X111059523Y-169690476D01*
X110964285Y-169738095D01*
X111964285Y-170071428D02*
X112726190Y-170071428D01*
X113392857Y-169452380D02*
X113488095Y-169452380D01*
X113583333Y-169500000D01*
X113630952Y-169547619D01*
X113678571Y-169642857D01*
X113726190Y-169833333D01*
X113726190Y-170071428D01*
X113678571Y-170261904D01*
X113630952Y-170357142D01*
X113583333Y-170404761D01*
X113488095Y-170452380D01*
X113392857Y-170452380D01*
X113297619Y-170404761D01*
X113250000Y-170357142D01*
X113202380Y-170261904D01*
X113154761Y-170071428D01*
X113154761Y-169833333D01*
X113202380Y-169642857D01*
X113250000Y-169547619D01*
X113297619Y-169500000D01*
X113392857Y-169452380D01*
X114154761Y-170452380D02*
X114154761Y-169452380D01*
X114726190Y-170452380D01*
X114726190Y-169452380D01*
X115630952Y-169452380D02*
X115440476Y-169452380D01*
X115345238Y-169500000D01*
X115297619Y-169547619D01*
X115202380Y-169690476D01*
X115154761Y-169880952D01*
X115154761Y-170261904D01*
X115202380Y-170357142D01*
X115250000Y-170404761D01*
X115345238Y-170452380D01*
X115535714Y-170452380D01*
X115630952Y-170404761D01*
X115678571Y-170357142D01*
X115726190Y-170261904D01*
X115726190Y-170023809D01*
X115678571Y-169928571D01*
X115630952Y-169880952D01*
X115535714Y-169833333D01*
X115345238Y-169833333D01*
X115250000Y-169880952D01*
X115202380Y-169928571D01*
X115154761Y-170023809D01*
D11*
X128350000Y-163000000D03*
X126500000Y-163000000D03*
X116850000Y-154000000D03*
X115000000Y-154000000D03*
X134600000Y-155750000D03*
X132750000Y-155750000D03*
D12*
X136249999Y-169600000D03*
X136249999Y-167750000D03*
D11*
X129150000Y-170750000D03*
X131000000Y-170750000D03*
D12*
X133750000Y-169600001D03*
X133750000Y-167750001D03*
D11*
X118400000Y-164250000D03*
X120250000Y-164250000D03*
X124900000Y-153750000D03*
X126750000Y-153750000D03*
X118400000Y-170750000D03*
X120250000Y-170750000D03*
D12*
X123000000Y-169600000D03*
X123000000Y-167750000D03*
X125500000Y-169600000D03*
X125500000Y-167750000D03*
D11*
X110400000Y-164000000D03*
X112250000Y-164000000D03*
X134850000Y-152500000D03*
X133000000Y-152500000D03*
X110150000Y-167250000D03*
X112000000Y-167250000D03*
D13*
X142000000Y-148000000D03*
X142000000Y-172000000D03*
X102750000Y-147750000D03*
X103000000Y-172000000D03*
D12*
X137250000Y-149350000D03*
X137250000Y-147500000D03*
X125000000Y-157150000D03*
X125000000Y-159000000D03*
X127250000Y-157150000D03*
X127250000Y-159000000D03*
X117000000Y-159000000D03*
X117000000Y-157150000D03*
D14*
X126250000Y-148250000D03*
X133500000Y-148250000D03*
D11*
X111100000Y-155750000D03*
X109250000Y-155750000D03*
D15*
X139500000Y-166200000D03*
D16*
X139500000Y-163660000D03*
X139500000Y-161120000D03*
X139500000Y-158580000D03*
X139500000Y-156040000D03*
X139500000Y-153500000D03*
D15*
X105500000Y-153500000D03*
D16*
X105500000Y-156040000D03*
X105500000Y-158580000D03*
X105500000Y-161120000D03*
X105500000Y-163660000D03*
X105500000Y-166200000D03*
D17*
X123000000Y-161338000D03*
X121730000Y-161338000D03*
X120460000Y-161338000D03*
X119190000Y-161338000D03*
X119190000Y-155750000D03*
X120460000Y-155750000D03*
X121730000Y-155750000D03*
X123000000Y-155750000D03*
D18*
X128750000Y-167500000D03*
X131250000Y-166500000D03*
X131250000Y-168500000D03*
X118000000Y-167500000D03*
X120500000Y-166500000D03*
X120500000Y-168500000D03*
D19*
X120250000Y-148750000D03*
D20*
X112500000Y-151100000D03*
X112500000Y-146500000D03*
D21*
X136588000Y-158000000D03*
X136588000Y-159270000D03*
X136588000Y-160540000D03*
X136588000Y-161810000D03*
X131000000Y-161810000D03*
X131000000Y-160540000D03*
X131000000Y-159270000D03*
X131000000Y-158000000D03*
X108456000Y-161655000D03*
X108456000Y-160385000D03*
X108456000Y-159115000D03*
X108456000Y-157845000D03*
X114044000Y-157845000D03*
X114044000Y-159115000D03*
X114044000Y-160385000D03*
X114044000Y-161655000D03*
D22*
X115425000Y-157750000D03*
X120500000Y-154500000D03*
X123000000Y-165250000D03*
X123000000Y-163750000D03*
X124500000Y-150750000D03*
X111500000Y-154000000D03*
X131500000Y-155750000D03*
X113500000Y-164000000D03*
X115500000Y-160500000D03*
X129500000Y-159250000D03*
X124500000Y-148750000D03*
X127250000Y-156000000D03*
X135750000Y-151000000D03*
X119250000Y-162750000D03*
X129500000Y-161750000D03*
X127849999Y-153750000D03*
X129500000Y-157250000D03*
D23*
X107469400Y-161655000D02*
X107250000Y-161874400D01*
X108456000Y-161655000D02*
X107469400Y-161655000D01*
X107250000Y-161874400D02*
X107250000Y-162250000D01*
X109000000Y-164000000D02*
X110250000Y-164000000D01*
X107250000Y-162250000D02*
X109000000Y-164000000D01*
X114044000Y-157845000D02*
X115330000Y-157845000D01*
X115330000Y-157845000D02*
X115425000Y-157750000D01*
X120460000Y-155750000D02*
X120460000Y-154540000D01*
X120460000Y-154540000D02*
X120500000Y-154500000D01*
X117700000Y-154000000D02*
X117950000Y-153750000D01*
X116850000Y-154000000D02*
X117700000Y-154000000D01*
X119750000Y-153750000D02*
X120500000Y-154500000D01*
X117950000Y-153750000D02*
X119750000Y-153750000D01*
D24*
X125200000Y-166500000D02*
X123249999Y-166500000D01*
X123000000Y-166750000D02*
X123000000Y-167750001D01*
X125499999Y-167749999D02*
X125500000Y-166800000D01*
X123249999Y-166500000D02*
X123000000Y-166750000D01*
X125500000Y-166800000D02*
X125200000Y-166500000D01*
X122750000Y-166500000D02*
X123249999Y-166500000D01*
X123000000Y-166750000D02*
X122750000Y-166500000D01*
X110650000Y-151100000D02*
X112500000Y-151100000D01*
X110500000Y-151250000D02*
X110650000Y-151100000D01*
X110500000Y-152250000D02*
X110500000Y-151250000D01*
X110750000Y-152500000D02*
X110500000Y-152250000D01*
X133500000Y-148250000D02*
X134700000Y-148250000D01*
X134700000Y-148250000D02*
X135000000Y-148550000D01*
X131000000Y-160540000D02*
X129040000Y-160540000D01*
X130174999Y-151174999D02*
X129750000Y-150750000D01*
X129040000Y-160540000D02*
X128674999Y-160174999D01*
X130599998Y-150750000D02*
X130174999Y-151174999D01*
X113000000Y-153000000D02*
X112500000Y-152500000D01*
X116250000Y-152500000D02*
X115750000Y-152500000D01*
X113500000Y-152500000D02*
X113000000Y-153000000D01*
X117000000Y-152500000D02*
X116750000Y-152500000D01*
X117000000Y-152500000D02*
X116250000Y-152500000D01*
X129040000Y-160540000D02*
X128309998Y-160540000D01*
X128349998Y-160500000D02*
X128549999Y-160299999D01*
X128549999Y-160299999D02*
X128674999Y-160174999D01*
X127809998Y-160540000D02*
X131000000Y-160540000D01*
X127540000Y-160540000D02*
X127809998Y-160540000D01*
X127250000Y-159000000D02*
X127250000Y-160250000D01*
X127250000Y-160250000D02*
X127540000Y-160540000D01*
X117000000Y-156450000D02*
X117000000Y-157500000D01*
X117000000Y-155750000D02*
X116750000Y-155500000D01*
X117000000Y-156000000D02*
X117000000Y-155750000D01*
X117000000Y-156000000D02*
X117000000Y-156450000D01*
X123000000Y-161338000D02*
X123000000Y-162250000D01*
X123000000Y-162250000D02*
X123250000Y-162500000D01*
X127250000Y-160250000D02*
X127000000Y-160500000D01*
X125000000Y-160000000D02*
X125000000Y-160250000D01*
X125000000Y-160000000D02*
X125000000Y-159000000D01*
X125000000Y-160750000D02*
X125000000Y-160000000D01*
X125000000Y-161000000D02*
X125460000Y-160540000D01*
X125000000Y-161500000D02*
X125000000Y-161000000D01*
X125460000Y-160540000D02*
X125210000Y-160540000D01*
X127809998Y-160540000D02*
X125460000Y-160540000D01*
X125000000Y-161500000D02*
X125000000Y-160750000D01*
X125000000Y-162000000D02*
X125000000Y-161500000D01*
X125000000Y-160080000D02*
X125460000Y-160540000D01*
X125000000Y-160000000D02*
X125000000Y-160080000D01*
X135000000Y-147950000D02*
X134700000Y-148250000D01*
X135000000Y-147950000D02*
X135000000Y-148550000D01*
X135000000Y-150500000D02*
X135000000Y-148550000D01*
X134750000Y-150750000D02*
X135000000Y-150500000D01*
X126250000Y-150750000D02*
X134750000Y-150750000D01*
X117000000Y-152500000D02*
X124500000Y-152500000D01*
X124500000Y-152500000D02*
X126250000Y-150750000D01*
X130174999Y-154825001D02*
X128674999Y-156325001D01*
X130174999Y-151174999D02*
X130174999Y-154825001D01*
X128674999Y-160174999D02*
X128674999Y-156325001D01*
X137250000Y-146450000D02*
X137250000Y-147500000D01*
X136800000Y-146000000D02*
X137250000Y-146450000D01*
X135500000Y-146000000D02*
X136800000Y-146000000D01*
X135000000Y-146500000D02*
X135500000Y-146000000D01*
X135000000Y-147950000D02*
X135000000Y-146500000D01*
X136250000Y-166800000D02*
X135950000Y-166500000D01*
X136249999Y-167750000D02*
X136250000Y-166800000D01*
X135950000Y-166500000D02*
X134000000Y-166500000D01*
X133750000Y-166750000D02*
X133750000Y-167750001D01*
X134000000Y-166500000D02*
X133750000Y-166750000D01*
X133750000Y-166750000D02*
X133500000Y-166500000D01*
X121750000Y-166500001D02*
X122750000Y-166500000D01*
X120500000Y-166500000D02*
X121750000Y-166500001D01*
X133750000Y-166500000D02*
X134000000Y-166500000D01*
X133500000Y-166500000D02*
X133750000Y-166500000D01*
X133750000Y-165500000D02*
X133500000Y-165250000D01*
X133500000Y-165250000D02*
X126450000Y-165250000D01*
X125500000Y-166250000D02*
X125475000Y-166225000D01*
X125500000Y-166800000D02*
X125500000Y-166250000D01*
X126450000Y-165250000D02*
X125475000Y-166225000D01*
X125475000Y-166225000D02*
X125200000Y-166500000D01*
X133500000Y-166500000D02*
X133750000Y-166250000D01*
X133250000Y-166500000D02*
X133500000Y-166500000D01*
X133750000Y-166250000D02*
X133750000Y-165500000D01*
X133750000Y-166500000D02*
X133750000Y-166250000D01*
X131250000Y-166500000D02*
X133250000Y-166500000D01*
X134000000Y-166500000D02*
X133750000Y-166250000D01*
X123000000Y-162750000D02*
X123250000Y-162500000D01*
X123000000Y-163000000D02*
X123000000Y-162750000D01*
X123000000Y-163000000D02*
X123000000Y-162250000D01*
X123000000Y-163750000D02*
X123000000Y-163000000D01*
X123000000Y-166250000D02*
X122750000Y-166500000D01*
X123000000Y-166000000D02*
X123000000Y-166250000D01*
X123000000Y-166000000D02*
X123000000Y-165250000D01*
X123000000Y-166750000D02*
X123000000Y-166000000D01*
X123000000Y-166250001D02*
X123249999Y-166500000D01*
X123000000Y-166000000D02*
X123000000Y-166250001D01*
X125000000Y-162250000D02*
X125000000Y-161500000D01*
X124750000Y-162500000D02*
X125000000Y-162250000D01*
X123250000Y-162500000D02*
X124750000Y-162500000D01*
X126500000Y-163000000D02*
X125250000Y-163000000D01*
X125000000Y-162250000D02*
X125000000Y-162750000D01*
X125250000Y-163000000D02*
X125000000Y-162750000D01*
X125000000Y-162750000D02*
X124750000Y-162500000D01*
X115750000Y-152500000D02*
X113750000Y-152500000D01*
X113250000Y-155500000D02*
X113075001Y-155674999D01*
X114250000Y-155500000D02*
X113250000Y-155500000D01*
X114250000Y-155500000D02*
X113750000Y-155500000D01*
X116750000Y-155500000D02*
X114250000Y-155500000D01*
X113250000Y-155500000D02*
X113000000Y-155250000D01*
X113000000Y-155250000D02*
X113000000Y-155000000D01*
X113750000Y-152500000D02*
X113000000Y-152500000D01*
X113000000Y-152500000D02*
X110750000Y-152500000D01*
X113000000Y-155278998D02*
X113075001Y-155353999D01*
X113000000Y-155000000D02*
X113000000Y-155278998D01*
X112615000Y-159115000D02*
X114044000Y-159115000D01*
X112250000Y-158750000D02*
X112615000Y-159115000D01*
X112250000Y-157000000D02*
X112250000Y-158750000D01*
X113000000Y-156250000D02*
X112250000Y-157000000D01*
X113000000Y-155000000D02*
X113000000Y-156250000D01*
X113250000Y-154000000D02*
X113000000Y-154250000D01*
X115000000Y-154000000D02*
X113250000Y-154000000D01*
X113000000Y-155000000D02*
X113000000Y-154250000D01*
X113000000Y-153750000D02*
X113250000Y-154000000D01*
X113000000Y-153250000D02*
X113000000Y-153750000D01*
X113000000Y-153250000D02*
X113000000Y-152500000D01*
X113000000Y-154250000D02*
X113000000Y-153250000D01*
D23*
X132750000Y-155750000D02*
X131500000Y-155750000D01*
X112250000Y-164000000D02*
X113500000Y-164000000D01*
X114044000Y-160385000D02*
X115385000Y-160385000D01*
X115385000Y-160385000D02*
X115500000Y-160500000D01*
X131000000Y-159270000D02*
X129520000Y-159270000D01*
X129520000Y-159270000D02*
X129500000Y-159250000D01*
X120250000Y-148750000D02*
X124500000Y-148750000D01*
X122250000Y-150750000D02*
X120250000Y-148750000D01*
X124500000Y-150750000D02*
X122250000Y-150750000D01*
X125000000Y-148250000D02*
X124500000Y-148750000D01*
X126250000Y-148250000D02*
X125000000Y-148250000D01*
X124500000Y-148750000D02*
X124500000Y-148750000D01*
X116750000Y-160500000D02*
X117000000Y-160250000D01*
X117000000Y-159850000D02*
X117000000Y-160000000D01*
X117000000Y-159000000D02*
X117000000Y-159850000D01*
X117000000Y-160250000D02*
X117000000Y-160000000D01*
X117000000Y-160000000D02*
X117000000Y-159350000D01*
X127250000Y-157150000D02*
X127250000Y-156000000D01*
X115500000Y-160500000D02*
X116750000Y-160500000D01*
X126684315Y-156000000D02*
X127250000Y-156000000D01*
X125300000Y-156000000D02*
X126684315Y-156000000D01*
X125000000Y-156300000D02*
X125300000Y-156000000D01*
X125000000Y-157150000D02*
X125000000Y-156300000D01*
X119000000Y-154250000D02*
X119190000Y-154440000D01*
X117250000Y-160500000D02*
X118000000Y-160500000D01*
X117000000Y-160250000D02*
X117250000Y-160500000D01*
X119190000Y-154440000D02*
X119190000Y-155750000D01*
X118000000Y-160500000D02*
X118250000Y-160250000D01*
X118250000Y-160250000D02*
X118250000Y-154500000D01*
X118250000Y-154500000D02*
X118500000Y-154250000D01*
X118500000Y-154250000D02*
X119000000Y-154250000D01*
X116750000Y-160500000D02*
X117250000Y-160500000D01*
X137250000Y-149350000D02*
X137250000Y-150500000D01*
X137250000Y-150500000D02*
X136750000Y-151000000D01*
X136750000Y-151000000D02*
X135750000Y-151000000D01*
X112250000Y-155500000D02*
X112000000Y-155750000D01*
X112250000Y-154750000D02*
X112250000Y-155500000D01*
X111500000Y-154000000D02*
X112250000Y-154750000D01*
X111100000Y-155750000D02*
X112000000Y-155750000D01*
X125500000Y-169750000D02*
X125499998Y-170750001D01*
X124250000Y-172000000D02*
X117500000Y-172000000D01*
X117250000Y-171750000D02*
X117250000Y-171000000D01*
X117500000Y-170750000D02*
X118250000Y-170750000D01*
X117500000Y-172000000D02*
X117250000Y-171750000D01*
X117250000Y-171000000D02*
X117500000Y-170750000D01*
X125499998Y-170750001D02*
X125500001Y-170750001D01*
X125500001Y-170750001D02*
X125750000Y-171000000D01*
X125750000Y-171000000D02*
X127250000Y-171000000D01*
X127250000Y-171000000D02*
X127500000Y-170750000D01*
X127500000Y-170750000D02*
X127500000Y-167750000D01*
X127750000Y-167500000D02*
X128750000Y-167500000D01*
X127500000Y-167750000D02*
X127750000Y-167500000D01*
X125250000Y-171000000D02*
X125249999Y-170999999D01*
X125750000Y-171000000D02*
X125250000Y-171000000D01*
X125499998Y-170750001D02*
X125249999Y-170999999D01*
X125249999Y-170999999D02*
X124250000Y-172000000D01*
X115845000Y-161655000D02*
X114044000Y-161655000D01*
X118250000Y-164250000D02*
X116750000Y-164250000D01*
X116500000Y-169750000D02*
X117500000Y-170750000D01*
X116500000Y-162310000D02*
X116220000Y-162030000D01*
X116500000Y-164000000D02*
X116500000Y-162310000D01*
X116750000Y-164250000D02*
X116500000Y-164000000D01*
X116220000Y-162030000D02*
X115845000Y-161655000D01*
X116500000Y-169750000D02*
X116549990Y-169799990D01*
X116500000Y-167250000D02*
X116500000Y-169750000D01*
X117250000Y-171000000D02*
X117250000Y-170500000D01*
X116549990Y-169799990D02*
X117250000Y-170500000D01*
X117250000Y-170500000D02*
X117500000Y-170750000D01*
X116500000Y-164500000D02*
X116750000Y-164250000D01*
X116500000Y-165250000D02*
X116500000Y-164500000D01*
X116500000Y-165250000D02*
X116500000Y-167250000D01*
X116500000Y-164000000D02*
X116500000Y-165250000D01*
X137574600Y-158000000D02*
X137750000Y-157824600D01*
X136588000Y-158000000D02*
X137574600Y-158000000D01*
X137750000Y-157824600D02*
X137750000Y-157250000D01*
X137750000Y-157250000D02*
X136250000Y-155750000D01*
X136250000Y-155750000D02*
X134750000Y-155750000D01*
X119190000Y-161338000D02*
X119190000Y-162690000D01*
X119190000Y-162690000D02*
X119250000Y-162750000D01*
X131000000Y-161810000D02*
X129560000Y-161810000D01*
X129560000Y-161810000D02*
X129500000Y-161750000D01*
X129500000Y-161750000D02*
X129500000Y-162750000D01*
X129250000Y-163000000D02*
X128350000Y-163000000D01*
X129500000Y-162750000D02*
X129250000Y-163000000D01*
X126750000Y-153750000D02*
X127849999Y-153750000D01*
X131000000Y-158000000D02*
X129750000Y-158000000D01*
X129750000Y-158000000D02*
X129500000Y-157750000D01*
X129500000Y-157750000D02*
X129500000Y-157250000D01*
X129000000Y-170750000D02*
X128250000Y-170750000D01*
X128250000Y-170750000D02*
X128000000Y-171000000D01*
X128000000Y-171000000D02*
X128000000Y-171750000D01*
X128000000Y-171750000D02*
X128250000Y-172000000D01*
X128250000Y-172000000D02*
X135000000Y-172000000D01*
X136249999Y-170750001D02*
X136249999Y-169750000D01*
X118000000Y-167500000D02*
X117250000Y-167500000D01*
X117250000Y-167500000D02*
X117000000Y-167250000D01*
X117000000Y-167250000D02*
X117000000Y-166000000D01*
X117000000Y-166000000D02*
X117500000Y-165500000D01*
X137249999Y-171000001D02*
X137500000Y-170750000D01*
X136499999Y-171000001D02*
X136249999Y-170750001D01*
X136000001Y-171000001D02*
X136000000Y-171000000D01*
X136749999Y-171000001D02*
X136000001Y-171000001D01*
X136000000Y-171000000D02*
X136249999Y-170750001D01*
X135000000Y-172000000D02*
X136000000Y-171000000D01*
X136749999Y-171000001D02*
X137249999Y-171000001D01*
X136499999Y-171000001D02*
X136749999Y-171000001D01*
X129500000Y-157250000D02*
X133500000Y-157250000D01*
X133500000Y-157250000D02*
X133750000Y-157500000D01*
X120000000Y-165500000D02*
X121500000Y-165500000D01*
X117500000Y-165500000D02*
X120000000Y-165500000D01*
X121500000Y-165500000D02*
X122500000Y-164500000D01*
X137500000Y-165000000D02*
X137500000Y-166000000D01*
X137000000Y-164500000D02*
X137500000Y-165000000D01*
X137500000Y-166000000D02*
X137500000Y-170750000D01*
X133500000Y-164500000D02*
X133750000Y-164250000D01*
X133750000Y-164250000D02*
X133750000Y-164500000D01*
X133750000Y-157500000D02*
X133750000Y-164250000D01*
X133500000Y-164500000D02*
X133750000Y-164500000D01*
X122500000Y-164500000D02*
X133500000Y-164500000D01*
X134000000Y-164500000D02*
X133750000Y-164250000D01*
X134500000Y-164500000D02*
X134000000Y-164500000D01*
X134500000Y-164500000D02*
X137000000Y-164500000D01*
X133750000Y-164500000D02*
X134500000Y-164500000D01*
X121500000Y-168750000D02*
X121500000Y-170500001D01*
X121500000Y-170500001D02*
X121750000Y-170750000D01*
X121250000Y-170750000D02*
X121500000Y-170500001D01*
X121249999Y-168500000D02*
X121500000Y-168750000D01*
X120250000Y-170750000D02*
X121250000Y-170750000D01*
X120500000Y-168500000D02*
X121249999Y-168500000D01*
X122750000Y-170750000D02*
X123000000Y-170500000D01*
X123000000Y-170500000D02*
X123000000Y-169750000D01*
X121250000Y-170750000D02*
X122750000Y-170750000D01*
X123000000Y-154763400D02*
X123000000Y-155750000D01*
X122736600Y-154500000D02*
X123000000Y-154763400D01*
X121993400Y-154500000D02*
X122736600Y-154500000D01*
X121730000Y-154763400D02*
X121993400Y-154500000D01*
X121730000Y-155750000D02*
X121730000Y-154763400D01*
X124750000Y-153750000D02*
X123486600Y-153750000D01*
X123000000Y-154250000D02*
X122993300Y-154243300D01*
X123000000Y-154763400D02*
X123000000Y-154250000D01*
X123486600Y-153750000D02*
X122993300Y-154243300D01*
X122993300Y-154243300D02*
X122736600Y-154500000D01*
X121730000Y-162324600D02*
X121730000Y-161338000D01*
X121554600Y-162500000D02*
X121730000Y-162324600D01*
X120635400Y-162500000D02*
X121554600Y-162500000D01*
X120460000Y-162324600D02*
X120635400Y-162500000D01*
X120460000Y-161338000D02*
X120460000Y-162324600D01*
X120250000Y-164250000D02*
X121250000Y-164250000D01*
X121730000Y-163770000D02*
X121625000Y-163875000D01*
X121730000Y-162480000D02*
X121730000Y-163770000D01*
X121250000Y-164250000D02*
X121625000Y-163875000D01*
X121730000Y-162324600D02*
X121730000Y-162480000D01*
X121730000Y-162675400D02*
X121554600Y-162500000D01*
X121730000Y-162480000D02*
X121730000Y-162675400D01*
X133500000Y-170750000D02*
X133750000Y-170500000D01*
X133750000Y-170500000D02*
X133750000Y-169750000D01*
X131250000Y-168500000D02*
X132000000Y-168500000D01*
X132000000Y-168500000D02*
X132250000Y-168750000D01*
X132250000Y-170500000D02*
X132500000Y-170750000D01*
X132250000Y-168750000D02*
X132250000Y-170500000D01*
X132500000Y-170750000D02*
X133500000Y-170750000D01*
X132000000Y-170750000D02*
X132250000Y-170500000D01*
X131000000Y-170750000D02*
X132000000Y-170750000D01*
X132000000Y-170750000D02*
X132500000Y-170750000D01*
X107335000Y-160385000D02*
X108456000Y-160385000D01*
X105500000Y-161120000D02*
X106600000Y-161120000D01*
X106600000Y-161120000D02*
X107335000Y-160385000D01*
X105500000Y-161120000D02*
X105500000Y-163660000D01*
X105500000Y-158580000D02*
X106600000Y-158580000D01*
X107135000Y-159115000D02*
X107010000Y-158990000D01*
X108456000Y-159115000D02*
X107135000Y-159115000D01*
X106600000Y-158580000D02*
X107010000Y-158990000D01*
X104170000Y-158580000D02*
X105500000Y-158580000D01*
X110150000Y-167250000D02*
X108000000Y-167250000D01*
X108000000Y-167250000D02*
X107500000Y-167750000D01*
X107500000Y-167750000D02*
X104250000Y-167750000D01*
X104250000Y-167750000D02*
X104000000Y-167500000D01*
X104000000Y-167500000D02*
X104000000Y-158750000D01*
X104000000Y-158750000D02*
X104170000Y-158580000D01*
X141000000Y-152200000D02*
X141000000Y-160950000D01*
X137500000Y-151950000D02*
X140750000Y-151950000D01*
X137000000Y-152450000D02*
X137500000Y-151950000D01*
X141000000Y-160950000D02*
X140830000Y-161120000D01*
X134850000Y-152450000D02*
X137000000Y-152450000D01*
X140750000Y-151950000D02*
X141000000Y-152200000D01*
X140830000Y-161120000D02*
X139500000Y-161120000D01*
X138400000Y-161120000D02*
X139500000Y-161120000D01*
X137820000Y-160540000D02*
X138400000Y-161120000D01*
X136588000Y-160540000D02*
X137820000Y-160540000D01*
D25*
X108000000Y-155750000D02*
X109250000Y-155750000D01*
X107750000Y-155500000D02*
X108000000Y-155750000D01*
X107250000Y-155000000D02*
X107750000Y-155500000D01*
X107250000Y-153500000D02*
X107250000Y-155000000D01*
X105500000Y-153500000D02*
X107250000Y-153500000D01*
X109250000Y-149500000D02*
X109250000Y-151500000D01*
X109250000Y-147250000D02*
X110000000Y-146500000D01*
X109250000Y-149500000D02*
X109250000Y-147250000D01*
X110000000Y-146500000D02*
X112500000Y-146500000D01*
X109250000Y-151500000D02*
X107250000Y-153500000D01*
D23*
X105500000Y-166200000D02*
X106600000Y-166200000D01*
X113000000Y-165750000D02*
X107050000Y-165750000D01*
X107050000Y-165750000D02*
X106900000Y-165900000D01*
X106600000Y-166200000D02*
X106900000Y-165900000D01*
X112000000Y-167250000D02*
X113000000Y-167250000D01*
X113000000Y-167250000D02*
X113250000Y-167000000D01*
X113250000Y-167000000D02*
X113250000Y-166000000D01*
X113250000Y-166000000D02*
X113000000Y-165750000D01*
X139500000Y-153500000D02*
X138400000Y-153500000D01*
X137950000Y-153950000D02*
X138100000Y-153800000D01*
X138400000Y-153500000D02*
X138100000Y-153800000D01*
X133000000Y-152450000D02*
X132000000Y-152450000D01*
X132000000Y-152450000D02*
X131750000Y-152700000D01*
X131750000Y-152700000D02*
X131750000Y-153700000D01*
X131750000Y-153700000D02*
X132000000Y-153950000D01*
X132000000Y-153950000D02*
X137950000Y-153950000D01*
X137710000Y-159270000D02*
X136588000Y-159270000D01*
X139500000Y-158580000D02*
X138400000Y-158580000D01*
X138400000Y-158580000D02*
X137710000Y-159270000D01*
X139500000Y-157140000D02*
X139500000Y-158580000D01*
X139500000Y-156040000D02*
X139500000Y-157140000D01*
M02*
