G04 #@! TF.GenerationSoftware,KiCad,Pcbnew,(5.1.2-1)-1*
G04 #@! TF.CreationDate,2021-06-24T11:17:02+03:00*
G04 #@! TF.ProjectId,OEP-1,4f45502d-312e-46b6-9963-61645f706362,rev?*
G04 #@! TF.SameCoordinates,Original*
G04 #@! TF.FileFunction,Copper,L1,Top*
G04 #@! TF.FilePolarity,Positive*
%FSLAX46Y46*%
G04 Gerber Fmt 4.6, Leading zero omitted, Abs format (unit mm)*
G04 Created by KiCad (PCBNEW (5.1.2-1)-1) date 2021-06-24 11:17:02*
%MOMM*%
%LPD*%
G04 APERTURE LIST*
%ADD10C,0.200000*%
%ADD11R,1.200000X1.500000*%
%ADD12R,1.500000X1.200000*%
%ADD13R,1.000000X0.800000*%
%ADD14C,5.500000*%
%ADD15R,1.500000X3.500000*%
%ADD16C,1.700000*%
%ADD17R,1.700000X1.700000*%
%ADD18R,7.000000X6.000000*%
%ADD19R,2.500000X1.500000*%
%ADD20R,1.473200X0.609600*%
%ADD21C,0.800000*%
%ADD22C,0.250000*%
%ADD23C,0.450000*%
%ADD24C,0.800000*%
G04 APERTURE END LIST*
D10*
X107011904Y-173952380D02*
X107202380Y-173952380D01*
X107297619Y-174000000D01*
X107392857Y-174095238D01*
X107440476Y-174285714D01*
X107440476Y-174619047D01*
X107392857Y-174809523D01*
X107297619Y-174904761D01*
X107202380Y-174952380D01*
X107011904Y-174952380D01*
X106916666Y-174904761D01*
X106821428Y-174809523D01*
X106773809Y-174619047D01*
X106773809Y-174285714D01*
X106821428Y-174095238D01*
X106916666Y-174000000D01*
X107011904Y-173952380D01*
X107869047Y-174428571D02*
X108202380Y-174428571D01*
X108345238Y-174952380D02*
X107869047Y-174952380D01*
X107869047Y-173952380D01*
X108345238Y-173952380D01*
X108773809Y-174952380D02*
X108773809Y-173952380D01*
X109154761Y-173952380D01*
X109250000Y-174000000D01*
X109297619Y-174047619D01*
X109345238Y-174142857D01*
X109345238Y-174285714D01*
X109297619Y-174380952D01*
X109250000Y-174428571D01*
X109154761Y-174476190D01*
X108773809Y-174476190D01*
X109773809Y-174571428D02*
X110535714Y-174571428D01*
X111535714Y-174952380D02*
X110964285Y-174952380D01*
X111250000Y-174952380D02*
X111250000Y-173952380D01*
X111154761Y-174095238D01*
X111059523Y-174190476D01*
X110964285Y-174238095D01*
X111964285Y-174571428D02*
X112726190Y-174571428D01*
X113726190Y-174952380D02*
X113154761Y-174952380D01*
X113440476Y-174952380D02*
X113440476Y-173952380D01*
X113345238Y-174095238D01*
X113250000Y-174190476D01*
X113154761Y-174238095D01*
X114154761Y-174952380D02*
X114154761Y-173952380D01*
X114726190Y-174952380D01*
X114726190Y-173952380D01*
X115630952Y-173952380D02*
X115440476Y-173952380D01*
X115345238Y-174000000D01*
X115297619Y-174047619D01*
X115202380Y-174190476D01*
X115154761Y-174380952D01*
X115154761Y-174761904D01*
X115202380Y-174857142D01*
X115250000Y-174904761D01*
X115345238Y-174952380D01*
X115535714Y-174952380D01*
X115630952Y-174904761D01*
X115678571Y-174857142D01*
X115726190Y-174761904D01*
X115726190Y-174523809D01*
X115678571Y-174428571D01*
X115630952Y-174380952D01*
X115535714Y-174333333D01*
X115345238Y-174333333D01*
X115250000Y-174380952D01*
X115202380Y-174428571D01*
X115154761Y-174523809D01*
D11*
X124500000Y-160750000D03*
X122650000Y-160750000D03*
X129600000Y-158750000D03*
X127750000Y-158750000D03*
D12*
X119250003Y-161399998D03*
X119250003Y-163249998D03*
D11*
X127500000Y-161750000D03*
X129350000Y-161750000D03*
X124000000Y-158500000D03*
X122150000Y-158500000D03*
X131500000Y-154000000D03*
X133350000Y-154000000D03*
D13*
X126000000Y-163750000D03*
X126000000Y-165750000D03*
X128500000Y-164750000D03*
X124000000Y-165750000D03*
X124000000Y-163750000D03*
X121500000Y-164750000D03*
X124500000Y-156500000D03*
X124500000Y-154500000D03*
X122000000Y-155500000D03*
X126500000Y-154500000D03*
X126500000Y-156500000D03*
X129000000Y-155500000D03*
D11*
X133350000Y-165500000D03*
X131500000Y-165500000D03*
X116850000Y-156500000D03*
X115000000Y-156500000D03*
X139600000Y-158250000D03*
X137750000Y-158250000D03*
D12*
X141249999Y-172100000D03*
X141249999Y-170250000D03*
D11*
X134150000Y-173250000D03*
X136000000Y-173250000D03*
D12*
X138750000Y-172100001D03*
X138750000Y-170250001D03*
D11*
X118150000Y-166750000D03*
X120000000Y-166750000D03*
X131400000Y-156250000D03*
X133250000Y-156250000D03*
X118400000Y-173250000D03*
X120250000Y-173250000D03*
D12*
X128000000Y-172100000D03*
X128000000Y-170250000D03*
X130500000Y-172100000D03*
X130500000Y-170250000D03*
D11*
X110400000Y-166500000D03*
X112250000Y-166500000D03*
X139850000Y-154500000D03*
X138000000Y-154500000D03*
X110150000Y-169750000D03*
X112000000Y-169750000D03*
D14*
X147000000Y-150000000D03*
X147000000Y-174000000D03*
X102750000Y-149750000D03*
X103000000Y-174000000D03*
D12*
X142250000Y-151350000D03*
X142250000Y-149500000D03*
X132250000Y-159650000D03*
X132250000Y-161500000D03*
X117000000Y-161500000D03*
X117000000Y-159650000D03*
D15*
X131250000Y-149750000D03*
X138500000Y-149750000D03*
D11*
X111100000Y-158250000D03*
X109250000Y-158250000D03*
D16*
X144500000Y-168700000D03*
D17*
X144500000Y-166160000D03*
X144500000Y-163620000D03*
X144500000Y-161080000D03*
X144500000Y-158540000D03*
X144500000Y-156000000D03*
D16*
X105500000Y-155750000D03*
D17*
X105500000Y-158290000D03*
X105500000Y-160830000D03*
X105500000Y-163370000D03*
X105500000Y-165910000D03*
X105500000Y-168450000D03*
D13*
X133750000Y-170000000D03*
X136250000Y-169000000D03*
X136250000Y-171000000D03*
X118000000Y-170000000D03*
X120500000Y-169000000D03*
X120500000Y-171000000D03*
D18*
X117250000Y-150750000D03*
D19*
X109500000Y-153100000D03*
X109500000Y-148500000D03*
D20*
X141588000Y-160500000D03*
X141588000Y-161770000D03*
X141588000Y-163040000D03*
X141588000Y-164310000D03*
X136000000Y-164310000D03*
X136000000Y-163040000D03*
X136000000Y-161770000D03*
X136000000Y-160500000D03*
X108456000Y-164155000D03*
X108456000Y-162885000D03*
X108456000Y-161615000D03*
X108456000Y-160345000D03*
X114044000Y-160345000D03*
X114044000Y-161615000D03*
X114044000Y-162885000D03*
X114044000Y-164155000D03*
D21*
X115425000Y-160250000D03*
X120250000Y-158500000D03*
X129250000Y-168250000D03*
X127237347Y-167487347D03*
X115500000Y-161750000D03*
X114500000Y-159000000D03*
X111500000Y-156500000D03*
X136500000Y-158250000D03*
X113500000Y-166500000D03*
X115500000Y-163000000D03*
X134500000Y-161750000D03*
X140750000Y-153000000D03*
X132250000Y-158500000D03*
X128750000Y-166000000D03*
X119250000Y-164750000D03*
X120750000Y-155500000D03*
X134500000Y-154000000D03*
X122500000Y-150750000D03*
X122500000Y-152000000D03*
X122500000Y-149500000D03*
X134500000Y-164250000D03*
X130750000Y-161750000D03*
X134500000Y-156250000D03*
X134500000Y-159750000D03*
X138750000Y-165750000D03*
X126500000Y-153499999D03*
X126499999Y-157499999D03*
X124000001Y-162750001D03*
X123999999Y-166750000D03*
D22*
X107250000Y-164750000D02*
X107250000Y-164124400D01*
X107250000Y-164124400D02*
X107469400Y-163905000D01*
X109000000Y-166500000D02*
X107250000Y-164750000D01*
X107469400Y-163905000D02*
X108456000Y-163905000D01*
X110250000Y-166500000D02*
X109000000Y-166500000D01*
X115330000Y-160345000D02*
X115425000Y-160250000D01*
X114044000Y-160345000D02*
X115330000Y-160345000D01*
X122150000Y-158500000D02*
X120250000Y-158500000D01*
X118250000Y-156500000D02*
X120250000Y-158500000D01*
X116850000Y-156500000D02*
X118250000Y-156500000D01*
D23*
X130200000Y-169000000D02*
X128249999Y-169000000D01*
X128000000Y-169250000D02*
X128000000Y-170250001D01*
X130499999Y-170249999D02*
X130500000Y-169300000D01*
X128249999Y-169000000D02*
X128000000Y-169250000D01*
X130500000Y-169300000D02*
X130200000Y-169000000D01*
X127750000Y-169000000D02*
X128249999Y-169000000D01*
X128000000Y-169250000D02*
X127750000Y-169000000D01*
X138500000Y-149750000D02*
X139700000Y-149750000D01*
X139700000Y-149750000D02*
X140000000Y-150050000D01*
X136000000Y-163040000D02*
X134040000Y-163040000D01*
X135424999Y-152674999D02*
X135000000Y-152250000D01*
X134040000Y-163040000D02*
X133674999Y-162674999D01*
X135849998Y-152250000D02*
X135424999Y-152674999D01*
X113000000Y-155000000D02*
X112500000Y-154500000D01*
X113500000Y-154500000D02*
X113000000Y-155000000D01*
X134040000Y-163040000D02*
X133309998Y-163040000D01*
X133349998Y-163000000D02*
X133549999Y-162799999D01*
X133549999Y-162799999D02*
X133674999Y-162674999D01*
X132809998Y-163040000D02*
X136000000Y-163040000D01*
X132540000Y-163040000D02*
X132809998Y-163040000D01*
X132250000Y-161500000D02*
X132250000Y-162750000D01*
X132250000Y-162750000D02*
X132540000Y-163040000D01*
X117000000Y-158950000D02*
X117000000Y-160000000D01*
X117000000Y-158250000D02*
X116750000Y-158000000D01*
X117000000Y-158500000D02*
X117000000Y-158250000D01*
X117000000Y-158500000D02*
X117000000Y-158950000D01*
X132250000Y-162750000D02*
X132000000Y-163000000D01*
X140000000Y-149450000D02*
X139700000Y-149750000D01*
X140000000Y-149450000D02*
X140000000Y-150050000D01*
X142250000Y-148450000D02*
X142250000Y-149500000D01*
X141800000Y-148000000D02*
X142250000Y-148450000D01*
X140500000Y-148000000D02*
X141800000Y-148000000D01*
X140000000Y-148500000D02*
X140500000Y-148000000D01*
X140000000Y-149950000D02*
X140000000Y-148500000D01*
X141250000Y-169300000D02*
X140950000Y-169000000D01*
X141249999Y-170250000D02*
X141250000Y-169300000D01*
X140950000Y-169000000D02*
X139000000Y-169000000D01*
X138750000Y-169250000D02*
X138750000Y-170250001D01*
X139000000Y-169000000D02*
X138750000Y-169250000D01*
X138750000Y-169250000D02*
X138500000Y-169000000D01*
X126750000Y-169000001D02*
X127750000Y-169000000D01*
X120500000Y-169000000D02*
X121750000Y-169000001D01*
X138750000Y-169000000D02*
X139000000Y-169000000D01*
X138500000Y-169000000D02*
X138750000Y-169000000D01*
X138750000Y-168000000D02*
X138500000Y-167750000D01*
X138500000Y-167750000D02*
X131450000Y-167750000D01*
X130500000Y-168750000D02*
X130475000Y-168725000D01*
X130500000Y-169300000D02*
X130500000Y-168750000D01*
X131450000Y-167750000D02*
X130475000Y-168725000D01*
X130475000Y-168725000D02*
X130200000Y-169000000D01*
X138500000Y-169000000D02*
X138750000Y-168750000D01*
X138250000Y-169000000D02*
X138500000Y-169000000D01*
X138750000Y-168750000D02*
X138750000Y-168000000D01*
X138750000Y-169000000D02*
X138750000Y-168750000D01*
X136250000Y-169000000D02*
X138250000Y-169000000D01*
X139000000Y-169000000D02*
X138750000Y-168750000D01*
X129250000Y-168750000D02*
X129000000Y-169000000D01*
X129250000Y-168500000D02*
X129250000Y-168750000D01*
X129250000Y-168750001D02*
X129499999Y-169000000D01*
X131500000Y-165500000D02*
X130250000Y-165500000D01*
X130000000Y-165500000D02*
X130000000Y-166000000D01*
X113250000Y-158000000D02*
X113075001Y-158174999D01*
X114250000Y-158000000D02*
X113250000Y-158000000D01*
X114250000Y-158000000D02*
X113750000Y-158000000D01*
X116750000Y-158000000D02*
X114250000Y-158000000D01*
X113250000Y-158000000D02*
X113000000Y-157750000D01*
X113000000Y-157750000D02*
X113000000Y-157500000D01*
X113000000Y-157778998D02*
X113075001Y-157853999D01*
X113000000Y-157500000D02*
X113000000Y-157778998D01*
X113000000Y-157500000D02*
X113000000Y-158750000D01*
X113250000Y-156500000D02*
X113000000Y-156750000D01*
X115000000Y-156500000D02*
X113250000Y-156500000D01*
X113000000Y-157500000D02*
X113000000Y-156750000D01*
X113000000Y-156250000D02*
X113250000Y-156500000D01*
X113000000Y-155750000D02*
X113000000Y-156250000D01*
X113000000Y-156750000D02*
X113000000Y-155750000D01*
X130125000Y-165375000D02*
X130000000Y-165250000D01*
X130250000Y-165500000D02*
X130125000Y-165375000D01*
X131500000Y-165500000D02*
X130000000Y-165500000D01*
X120500000Y-163700000D02*
X120500000Y-162750000D01*
X120500000Y-162750000D02*
X120500000Y-160250000D01*
X120500000Y-160250000D02*
X120250000Y-160000000D01*
X120250000Y-160000000D02*
X119500000Y-160000000D01*
X119500000Y-160000000D02*
X119250000Y-160250000D01*
X119250000Y-160250000D02*
X119250000Y-161500000D01*
X119250000Y-159750000D02*
X119500000Y-160000000D01*
X119250000Y-158500000D02*
X119250000Y-159750000D01*
X118750000Y-158000000D02*
X119250000Y-158500000D01*
X117250000Y-158000000D02*
X118750000Y-158000000D01*
X117000000Y-158250000D02*
X117250000Y-158000000D01*
X119250000Y-160250000D02*
X119250000Y-159750000D01*
X117250000Y-158000000D02*
X116750000Y-158000000D01*
X121750000Y-169000001D02*
X126750000Y-169000001D01*
X133674999Y-158825001D02*
X133674999Y-162674999D01*
X135424999Y-157075001D02*
X133674999Y-158825001D01*
X139750000Y-152250000D02*
X140000000Y-152000000D01*
X140000000Y-152000000D02*
X140000000Y-150050000D01*
X129950000Y-155500000D02*
X130000000Y-155450000D01*
X129000000Y-155500000D02*
X129950000Y-155500000D01*
X130000000Y-155450000D02*
X130000000Y-155000000D01*
X130000000Y-155000000D02*
X130000000Y-154750000D01*
X135424999Y-155174999D02*
X135424999Y-152825001D01*
X135424999Y-152325001D02*
X135500000Y-152250000D01*
X135500000Y-152250000D02*
X139750000Y-152250000D01*
X135424999Y-155174999D02*
X135424999Y-157075001D01*
X132500000Y-152250000D02*
X135500000Y-152250000D01*
X113000000Y-155000000D02*
X113000000Y-155750000D01*
X125500000Y-152250000D02*
X128000000Y-152250000D01*
X121250000Y-154500000D02*
X123500000Y-152250000D01*
X123500000Y-152250000D02*
X125500000Y-152250000D01*
X109700000Y-154500000D02*
X121250000Y-154500000D01*
X109500000Y-154300000D02*
X109700000Y-154500000D01*
X109500000Y-153100000D02*
X109500000Y-154300000D01*
X132500000Y-152250000D02*
X130000000Y-152250000D01*
X131500000Y-154000000D02*
X130450000Y-154000000D01*
X130000000Y-154750000D02*
X130000000Y-153500000D01*
X130000000Y-154750000D02*
X130000000Y-154400000D01*
X130000000Y-154450000D02*
X130450000Y-154000000D01*
X130000000Y-154750000D02*
X130000000Y-154450000D01*
X130450000Y-153950000D02*
X129750000Y-153250000D01*
X129750000Y-153250000D02*
X129500000Y-153000000D01*
X130450000Y-154000000D02*
X130450000Y-153950000D01*
X130000000Y-153500000D02*
X129750000Y-153250000D01*
X130000000Y-154450000D02*
X130000000Y-154000000D01*
X130000000Y-154000000D02*
X129500000Y-153500000D01*
X127237347Y-167487347D02*
X127774704Y-166949990D01*
X127774704Y-166949990D02*
X129550010Y-166949990D01*
X129550010Y-166949990D02*
X130000000Y-166500000D01*
X130000000Y-165750000D02*
X130250000Y-165500000D01*
X130000000Y-166000000D02*
X130000000Y-165250000D01*
X130000000Y-166500000D02*
X130000000Y-166000000D01*
X130000000Y-166000000D02*
X130000000Y-165750000D01*
X130460000Y-163040000D02*
X132809998Y-163040000D01*
X130000000Y-163500000D02*
X130460000Y-163040000D01*
X130000000Y-165500000D02*
X130000000Y-163500000D01*
X120500000Y-163700000D02*
X120500000Y-164500000D01*
X120500000Y-164700000D02*
X120550000Y-164750000D01*
X120500000Y-164500000D02*
X120500000Y-164700000D01*
X120550000Y-164750000D02*
X121500000Y-164750000D01*
X115365000Y-161615000D02*
X115500000Y-161750000D01*
X114044000Y-161615000D02*
X115365000Y-161615000D01*
X113250000Y-159000000D02*
X113000000Y-158750000D01*
X114500000Y-159000000D02*
X113250000Y-159000000D01*
D22*
X121500000Y-152000000D02*
X121500000Y-152000000D01*
X121500000Y-149500000D02*
X121500000Y-149500000D01*
X137750000Y-158250000D02*
X136500000Y-158250000D01*
X112250000Y-166500000D02*
X113500000Y-166500000D01*
X114044000Y-162885000D02*
X115385000Y-162885000D01*
X115385000Y-162885000D02*
X115500000Y-163000000D01*
X136000000Y-161770000D02*
X134520000Y-161770000D01*
X134520000Y-161770000D02*
X134500000Y-161750000D01*
X119250000Y-152750000D02*
X117250000Y-150750000D01*
X116750000Y-163000000D02*
X117000000Y-162750000D01*
X117000000Y-162350000D02*
X117000000Y-162500000D01*
X117000000Y-161500000D02*
X117000000Y-162350000D01*
X117000000Y-162750000D02*
X117000000Y-162500000D01*
X117000000Y-162500000D02*
X117000000Y-161850000D01*
X115500000Y-163000000D02*
X116750000Y-163000000D01*
X142250000Y-151350000D02*
X142250000Y-152500000D01*
X142250000Y-152500000D02*
X141750000Y-153000000D01*
X141750000Y-153000000D02*
X140750000Y-153000000D01*
X112250000Y-158000000D02*
X112000000Y-158250000D01*
X112250000Y-157250000D02*
X112250000Y-158000000D01*
X111500000Y-156500000D02*
X112250000Y-157250000D01*
X111100000Y-158250000D02*
X112000000Y-158250000D01*
X132250000Y-159650000D02*
X132250000Y-158500000D01*
X121500000Y-150750000D02*
X121500000Y-150750000D01*
X129250000Y-164750000D02*
X129449990Y-164949990D01*
X128500000Y-164750000D02*
X129250000Y-164750000D01*
X129449990Y-164949990D02*
X129449990Y-165500000D01*
X129449990Y-165500000D02*
X129449990Y-165800010D01*
X129250000Y-166000000D02*
X128750000Y-166000000D01*
X129449990Y-165800010D02*
X129250000Y-166000000D01*
X119250003Y-164099998D02*
X119250000Y-164100001D01*
X119250003Y-163249998D02*
X119250003Y-164099998D01*
X119250000Y-164100001D02*
X119250000Y-164750000D01*
X122000000Y-155500000D02*
X120750000Y-155500000D01*
X122500000Y-150750000D02*
X122750000Y-150750000D01*
X128000000Y-149750000D02*
X127000000Y-150750000D01*
X131250000Y-149750000D02*
X128000000Y-149750000D01*
X122750000Y-150750000D02*
X127000000Y-150750000D01*
X133350000Y-154000000D02*
X134500000Y-154000000D01*
X117250000Y-150750000D02*
X122500000Y-150750000D01*
X117250000Y-152000000D02*
X122500000Y-152000000D01*
X117250000Y-149500000D02*
X122500000Y-149500000D01*
X130500000Y-172250000D02*
X130499998Y-173250001D01*
X117500000Y-173250000D02*
X118250000Y-173250000D01*
X117250000Y-173500000D02*
X117500000Y-173250000D01*
X130499998Y-173250001D02*
X130500001Y-173250001D01*
X130500001Y-173250001D02*
X130750000Y-173500000D01*
X130750000Y-173500000D02*
X132250000Y-173500000D01*
X132250000Y-173500000D02*
X132500000Y-173250000D01*
X132500000Y-173250000D02*
X132500000Y-170250000D01*
X132750000Y-170000000D02*
X133750000Y-170000000D01*
X132500000Y-170250000D02*
X132750000Y-170000000D01*
X130250000Y-173500000D02*
X130249999Y-173499999D01*
X130750000Y-173500000D02*
X130250000Y-173500000D01*
X130499998Y-173250001D02*
X130249999Y-173499999D01*
X115845000Y-164155000D02*
X114044000Y-164155000D01*
X118250000Y-166750000D02*
X116750000Y-166750000D01*
X116500000Y-172250000D02*
X117500000Y-173250000D01*
X116500000Y-164810000D02*
X116220000Y-164530000D01*
X116500000Y-166500000D02*
X116500000Y-164810000D01*
X116750000Y-166750000D02*
X116500000Y-166500000D01*
X116220000Y-164530000D02*
X115845000Y-164155000D01*
X116500000Y-172250000D02*
X116549990Y-172299990D01*
X116500000Y-169750000D02*
X116500000Y-172250000D01*
X117250000Y-173500000D02*
X117250000Y-173000000D01*
X116549990Y-172299990D02*
X117250000Y-173000000D01*
X117250000Y-173000000D02*
X117500000Y-173250000D01*
X116500000Y-167000000D02*
X116750000Y-166750000D01*
X116500000Y-167750000D02*
X116500000Y-167000000D01*
X116500000Y-167750000D02*
X116500000Y-169750000D01*
X116500000Y-166500000D02*
X116500000Y-167750000D01*
X117500000Y-174500000D02*
X129250000Y-174500000D01*
X117250000Y-174250000D02*
X117500000Y-174500000D01*
X129250000Y-174500000D02*
X130249999Y-173499999D01*
X117250000Y-173500000D02*
X117250000Y-174250000D01*
X142574600Y-160500000D02*
X142750000Y-160324600D01*
X141588000Y-160500000D02*
X142574600Y-160500000D01*
X142750000Y-160324600D02*
X142750000Y-159750000D01*
X142750000Y-159750000D02*
X141250000Y-158250000D01*
X141250000Y-158250000D02*
X139750000Y-158250000D01*
X136000000Y-164310000D02*
X134560000Y-164310000D01*
X134560000Y-164310000D02*
X134500000Y-164250000D01*
X134500000Y-164250000D02*
X134500000Y-165250000D01*
X134250000Y-165500000D02*
X133350000Y-165500000D01*
X134500000Y-165250000D02*
X134250000Y-165500000D01*
X129350000Y-161750000D02*
X130750000Y-161750000D01*
X133250000Y-156250000D02*
X134349999Y-156250000D01*
X136000000Y-160500000D02*
X134750000Y-160500000D01*
X134750000Y-160500000D02*
X134500000Y-160250000D01*
X134500000Y-160250000D02*
X134500000Y-159750000D01*
X134000000Y-173250000D02*
X133250000Y-173250000D01*
X133250000Y-173250000D02*
X133000000Y-173500000D01*
X133000000Y-173500000D02*
X133000000Y-174250000D01*
X133000000Y-174250000D02*
X133250000Y-174500000D01*
X133250000Y-174500000D02*
X140000000Y-174500000D01*
X141249999Y-173250001D02*
X141249999Y-172250000D01*
X142249999Y-173500001D02*
X142500000Y-173250000D01*
X141499999Y-173500001D02*
X141249999Y-173250001D01*
X141000001Y-173500001D02*
X141000000Y-173500000D01*
X141749999Y-173500001D02*
X141000001Y-173500001D01*
X141000000Y-173500000D02*
X141249999Y-173250001D01*
X140000000Y-174500000D02*
X141000000Y-173500000D01*
X141749999Y-173500001D02*
X142249999Y-173500001D01*
X141499999Y-173500001D02*
X141749999Y-173500001D01*
X142500000Y-167500000D02*
X142500000Y-168500000D01*
X142000000Y-167000000D02*
X142500000Y-167500000D01*
X142500000Y-168500000D02*
X142500000Y-173250000D01*
X138500000Y-167000000D02*
X138750000Y-166750000D01*
X138750000Y-166750000D02*
X138750000Y-167000000D01*
X138500000Y-167000000D02*
X138750000Y-167000000D01*
X139000000Y-167000000D02*
X138750000Y-166750000D01*
X139500000Y-167000000D02*
X139000000Y-167000000D01*
X139500000Y-167000000D02*
X142000000Y-167000000D01*
X138750000Y-167000000D02*
X139500000Y-167000000D01*
X131422170Y-167000000D02*
X138500000Y-167000000D01*
X128250000Y-167500000D02*
X130922170Y-167500000D01*
X127500000Y-168250000D02*
X128250000Y-167500000D01*
X121500000Y-168000000D02*
X121750000Y-168250000D01*
X121750000Y-168250000D02*
X127500000Y-168250000D01*
X117000000Y-168500000D02*
X117500000Y-168000000D01*
X117000000Y-169750000D02*
X117000000Y-168500000D01*
X117250000Y-170000000D02*
X117000000Y-169750000D01*
X130922170Y-167500000D02*
X131422170Y-167000000D01*
X117500000Y-168000000D02*
X121500000Y-168000000D01*
X118000000Y-170000000D02*
X117250000Y-170000000D01*
X138750000Y-165750000D02*
X138750000Y-166750000D01*
X122500000Y-171250000D02*
X122500000Y-173000001D01*
X122500000Y-173000001D02*
X122750000Y-173250000D01*
X122250000Y-173250000D02*
X122500000Y-173000001D01*
X122249999Y-171000000D02*
X122500000Y-171250000D01*
X120250000Y-173250000D02*
X121250000Y-173250000D01*
X120500000Y-171000000D02*
X121249999Y-171000000D01*
X127750000Y-173250000D02*
X128000000Y-173000000D01*
X128000000Y-173000000D02*
X128000000Y-172250000D01*
X121250000Y-173250000D02*
X127750000Y-173250000D01*
X121249999Y-171000000D02*
X122250000Y-171000000D01*
X138500000Y-173250000D02*
X138750000Y-173000000D01*
X138750000Y-173000000D02*
X138750000Y-172250000D01*
X136250000Y-171000000D02*
X137000000Y-171000000D01*
X137000000Y-171000000D02*
X137250000Y-171250000D01*
X137250000Y-173000000D02*
X137500000Y-173250000D01*
X137250000Y-171250000D02*
X137250000Y-173000000D01*
X137500000Y-173250000D02*
X138500000Y-173250000D01*
X137000000Y-173250000D02*
X137250000Y-173000000D01*
X136000000Y-173250000D02*
X137000000Y-173250000D01*
X137000000Y-173250000D02*
X137500000Y-173250000D01*
X105500000Y-163370000D02*
X106600000Y-163370000D01*
X105500000Y-163370000D02*
X105500000Y-165910000D01*
X107085000Y-162885000D02*
X106860000Y-163110000D01*
X108456000Y-162885000D02*
X107085000Y-162885000D01*
X106600000Y-163370000D02*
X106860000Y-163110000D01*
X105500000Y-160830000D02*
X106600000Y-160830000D01*
X107135000Y-161365000D02*
X107010000Y-161240000D01*
X106600000Y-160830000D02*
X107010000Y-161240000D01*
X104170000Y-160830000D02*
X105500000Y-160830000D01*
X107500000Y-170000000D02*
X104250000Y-170000000D01*
X104250000Y-170000000D02*
X104000000Y-169750000D01*
X104000000Y-169750000D02*
X104000000Y-161000000D01*
X104000000Y-161000000D02*
X104170000Y-160830000D01*
X108750000Y-169750000D02*
X107750000Y-169750000D01*
X107750000Y-169750000D02*
X107500000Y-170000000D01*
X110150000Y-169750000D02*
X108750000Y-169750000D01*
X108750000Y-169750000D02*
X108000000Y-169750000D01*
X107385000Y-161615000D02*
X107010000Y-161240000D01*
X108456000Y-161615000D02*
X107385000Y-161615000D01*
X146000000Y-163450000D02*
X145830000Y-163620000D01*
X145830000Y-163620000D02*
X144500000Y-163620000D01*
X143400000Y-163620000D02*
X144500000Y-163620000D01*
X142820000Y-163040000D02*
X143400000Y-163620000D01*
X141588000Y-163040000D02*
X142820000Y-163040000D01*
X139850000Y-154500000D02*
X145500000Y-154500000D01*
X145500000Y-154500000D02*
X146000000Y-155000000D01*
X146000000Y-155000000D02*
X146000000Y-163450000D01*
D24*
X107750000Y-156250000D02*
X107250000Y-155750000D01*
X107250000Y-155750000D02*
X105500000Y-155750000D01*
X109250000Y-158250000D02*
X108250000Y-158250000D01*
X107750000Y-157750000D02*
X107750000Y-156250000D01*
X108250000Y-158250000D02*
X107750000Y-157750000D01*
X107000000Y-152772808D02*
X107000000Y-149000000D01*
X107500000Y-148500000D02*
X109250000Y-148500000D01*
X107000000Y-149000000D02*
X107500000Y-148500000D01*
X105500000Y-154272808D02*
X107000000Y-152772808D01*
X105500000Y-155750000D02*
X105500000Y-154272808D01*
D22*
X105500000Y-168450000D02*
X106600000Y-168450000D01*
X112000000Y-169750000D02*
X113000000Y-169750000D01*
X113000000Y-169750000D02*
X113250000Y-169500000D01*
X113250000Y-169500000D02*
X113250000Y-168500000D01*
X113250000Y-168500000D02*
X113000000Y-168250000D01*
X106800000Y-168250000D02*
X106600000Y-168450000D01*
X113000000Y-168250000D02*
X108000000Y-168250000D01*
X108000000Y-168250000D02*
X106800000Y-168250000D01*
X108000000Y-168250000D02*
X107050000Y-168250000D01*
X137000000Y-154500000D02*
X138000000Y-154500000D01*
X137000000Y-156000000D02*
X136750000Y-155750000D01*
X136750000Y-154750000D02*
X137000000Y-154500000D01*
X144500000Y-156000000D02*
X137000000Y-156000000D01*
X136750000Y-155750000D02*
X136750000Y-154750000D01*
X142710000Y-161770000D02*
X141588000Y-161770000D01*
X144500000Y-161080000D02*
X143400000Y-161080000D01*
X143400000Y-161080000D02*
X142710000Y-161770000D01*
X144500000Y-159640000D02*
X144500000Y-161080000D01*
X144500000Y-158540000D02*
X144500000Y-159640000D01*
X124850001Y-158500000D02*
X124000000Y-158500000D01*
X125000000Y-158350000D02*
X124850001Y-158500000D01*
X125500000Y-156113590D02*
X125500000Y-154886409D01*
X125113590Y-156500001D02*
X125500000Y-156113590D01*
X125886410Y-154500000D02*
X126500000Y-154500000D01*
X125500000Y-154886409D02*
X125886410Y-154500000D01*
X124500000Y-156500000D02*
X125113590Y-156500001D01*
X127750000Y-158750000D02*
X125400000Y-158750000D01*
X124500000Y-157150000D02*
X124500000Y-156499998D01*
X125000001Y-157650002D02*
X124500000Y-157150000D01*
X125000000Y-158350000D02*
X125000001Y-157650002D01*
X124850001Y-158500000D02*
X125150000Y-158500000D01*
X125200000Y-158550000D02*
X125000000Y-158350000D01*
X125150000Y-158500000D02*
X125200000Y-158550000D01*
X125400000Y-158750000D02*
X125200000Y-158550000D01*
X126000000Y-163750002D02*
X125386410Y-163749999D01*
X124613590Y-165750000D02*
X123999999Y-165750001D01*
X125386410Y-163749999D02*
X125000000Y-164136410D01*
X125000000Y-164136410D02*
X125000000Y-165363591D01*
X125000000Y-165363591D02*
X124613590Y-165750000D01*
X126000000Y-163750000D02*
X126000000Y-162000000D01*
X126000000Y-162000000D02*
X126250000Y-161750000D01*
X126250000Y-161750000D02*
X127500000Y-161750000D01*
X124500000Y-160750000D02*
X125750000Y-160750000D01*
X125750000Y-160750000D02*
X126000000Y-161000000D01*
X126000000Y-161500000D02*
X126250000Y-161750000D01*
X126000000Y-161000000D02*
X126000000Y-161500000D01*
X126000000Y-162000000D02*
X126000000Y-161500000D01*
X125600000Y-153499999D02*
X126500000Y-153499999D01*
X124600000Y-154500000D02*
X125600000Y-153499999D01*
X126500001Y-156500000D02*
X125750000Y-156500000D01*
X125750000Y-156500000D02*
X125499999Y-156750001D01*
X125499999Y-156750001D02*
X125500001Y-157000001D01*
X125500000Y-157250000D02*
X125750001Y-157500001D01*
X125500001Y-157000001D02*
X125500000Y-157250000D01*
X125750001Y-157500001D02*
X126499999Y-157499999D01*
X126499999Y-157499999D02*
X129000001Y-157499999D01*
X130250000Y-156250000D02*
X131500000Y-156250000D01*
X130450000Y-158750000D02*
X130750000Y-158450000D01*
X129600000Y-158750000D02*
X130450000Y-158750000D01*
X130750000Y-158450000D02*
X130750000Y-157750000D01*
X130750000Y-157750000D02*
X129875000Y-156875000D01*
X129875000Y-156875000D02*
X129625000Y-156875000D01*
X129000001Y-157499999D02*
X129625000Y-156875000D01*
X129875000Y-156875000D02*
X129875000Y-156625000D01*
X129875000Y-156625000D02*
X130000000Y-156500000D01*
X130000000Y-156500000D02*
X130250000Y-156250000D01*
X129625000Y-156875000D02*
X130000000Y-156500000D01*
X123999999Y-163750000D02*
X124750000Y-163750000D01*
X124750000Y-163750000D02*
X125000000Y-163499998D01*
X125000000Y-163499998D02*
X124999999Y-163249999D01*
X124999999Y-163249999D02*
X125000000Y-163000000D01*
X125000000Y-163000000D02*
X124749999Y-162749999D01*
X124749999Y-162749999D02*
X124000001Y-162750001D01*
X125900000Y-165750000D02*
X124900001Y-166750001D01*
X126000000Y-165750000D02*
X125900000Y-165750000D01*
X124900001Y-166750001D02*
X123999999Y-166750001D01*
X120250000Y-166750000D02*
X121750000Y-166750000D01*
X121750000Y-166750000D02*
X122500000Y-166750000D01*
X122500000Y-166750000D02*
X123000000Y-166750000D01*
X123999999Y-166750001D02*
X123999999Y-166750001D01*
X123000000Y-166750000D02*
X123999999Y-166750000D01*
X121250000Y-161000000D02*
X121250000Y-162500000D01*
X121500000Y-160750000D02*
X121250000Y-161000000D01*
X121500001Y-162750001D02*
X124000001Y-162750001D01*
X121250000Y-162500000D02*
X121500001Y-162750001D01*
X122650000Y-160750000D02*
X121500000Y-160750000D01*
D10*
G36*
X129897097Y-151500000D02*
G01*
X129908682Y-151617621D01*
X129942990Y-151730721D01*
X129998704Y-151834955D01*
X130073683Y-151926317D01*
X130165045Y-152001296D01*
X130269279Y-152057010D01*
X130382379Y-152091318D01*
X130400000Y-152093054D01*
X130400000Y-152269979D01*
X130285916Y-152330958D01*
X130118419Y-152468419D01*
X129980958Y-152635916D01*
X129878816Y-152827012D01*
X129815916Y-153034362D01*
X129794678Y-153250000D01*
X129799409Y-153650000D01*
X127489754Y-153650000D01*
X127500000Y-153598490D01*
X127500000Y-153401508D01*
X127461571Y-153208310D01*
X127386189Y-153026321D01*
X127276751Y-152862536D01*
X127137463Y-152723248D01*
X126973678Y-152613810D01*
X126791689Y-152538428D01*
X126598491Y-152499999D01*
X126401509Y-152499999D01*
X126208311Y-152538428D01*
X126026322Y-152613810D01*
X125862537Y-152723248D01*
X125810786Y-152774999D01*
X125635596Y-152774999D01*
X125599999Y-152771493D01*
X125564402Y-152774999D01*
X125564393Y-152774999D01*
X125457875Y-152785490D01*
X125321212Y-152826946D01*
X125254629Y-152862536D01*
X125195262Y-152894268D01*
X125145891Y-152934787D01*
X125084868Y-152984867D01*
X125062168Y-153012527D01*
X124577599Y-153497097D01*
X124100000Y-153497097D01*
X124100000Y-151475000D01*
X126964403Y-151475000D01*
X127000000Y-151478506D01*
X127035597Y-151475000D01*
X127035607Y-151475000D01*
X127142125Y-151464509D01*
X127278788Y-151423053D01*
X127404737Y-151355731D01*
X127515132Y-151265132D01*
X127537832Y-151237472D01*
X128175305Y-150600000D01*
X129897097Y-150600000D01*
X129897097Y-151500000D01*
X129897097Y-151500000D01*
G37*
X129897097Y-151500000D02*
X129908682Y-151617621D01*
X129942990Y-151730721D01*
X129998704Y-151834955D01*
X130073683Y-151926317D01*
X130165045Y-152001296D01*
X130269279Y-152057010D01*
X130382379Y-152091318D01*
X130400000Y-152093054D01*
X130400000Y-152269979D01*
X130285916Y-152330958D01*
X130118419Y-152468419D01*
X129980958Y-152635916D01*
X129878816Y-152827012D01*
X129815916Y-153034362D01*
X129794678Y-153250000D01*
X129799409Y-153650000D01*
X127489754Y-153650000D01*
X127500000Y-153598490D01*
X127500000Y-153401508D01*
X127461571Y-153208310D01*
X127386189Y-153026321D01*
X127276751Y-152862536D01*
X127137463Y-152723248D01*
X126973678Y-152613810D01*
X126791689Y-152538428D01*
X126598491Y-152499999D01*
X126401509Y-152499999D01*
X126208311Y-152538428D01*
X126026322Y-152613810D01*
X125862537Y-152723248D01*
X125810786Y-152774999D01*
X125635596Y-152774999D01*
X125599999Y-152771493D01*
X125564402Y-152774999D01*
X125564393Y-152774999D01*
X125457875Y-152785490D01*
X125321212Y-152826946D01*
X125254629Y-152862536D01*
X125195262Y-152894268D01*
X125145891Y-152934787D01*
X125084868Y-152984867D01*
X125062168Y-153012527D01*
X124577599Y-153497097D01*
X124100000Y-153497097D01*
X124100000Y-151475000D01*
X126964403Y-151475000D01*
X127000000Y-151478506D01*
X127035597Y-151475000D01*
X127035607Y-151475000D01*
X127142125Y-151464509D01*
X127278788Y-151423053D01*
X127404737Y-151355731D01*
X127515132Y-151265132D01*
X127537832Y-151237472D01*
X128175305Y-150600000D01*
X129897097Y-150600000D01*
X129897097Y-151500000D01*
M02*
