M48
; DRILL file {KiCad (5.1.2-1)-1} date четверг, 24 июня 2021 г., 11:17:08
; FORMAT={3:3/ absolute / metric / keep zeros}
; #@! TF.CreationDate,2021-06-24T11:17:08+03:00
; #@! TF.GenerationSoftware,Kicad,Pcbnew,(5.1.2-1)-1
; #@! TF.FileFunction,Plated,1,2,PTH
FMAT,2
METRIC
T1C0.400
T2C1.000
T3C3.400
%
G90
G05
T1
X111500Y-156500
X113500Y-166500
X114500Y-159000
X115425Y-160250
X115500Y-161750
X115500Y-163000
X119250Y-164750
X120250Y-158500
X120750Y-155500
X122500Y-149500
X122500Y-150750
X122500Y-152000
X124000Y-166750
X124000Y-162750
X126500Y-157500
X126500Y-153500
X127237Y-167487
X128750Y-166000
X129250Y-168250
X130750Y-161750
X132250Y-158500
X134500Y-154000
X134500Y-156250
X134500Y-159750
X134500Y-161750
X134500Y-164250
X136500Y-158250
X138750Y-165750
X140750Y-153000
T2
X144500Y-156000
X144500Y-158540
X144500Y-161080
X144500Y-163620
X144500Y-166160
X144500Y-168700
X105500Y-155750
X105500Y-158290
X105500Y-160830
X105500Y-163370
X105500Y-165910
X105500Y-168450
T3
X147000Y-150000
X147000Y-174000
X102750Y-149750
X103000Y-174000
T0
M30
